<?xml version="1.0" encoding="UTF-8" standalone="no"?>
<!-- Created with Inkscape (http://www.inkscape.org/) -->

<svg
   width="225.1102mm"
   height="202.28836mm"
   viewBox="0 0 225.1102 202.28836"
   version="1.1"
   id="svg5"
   inkscape:version="1.3 (0e150ed6c4, 2023-07-21)"
   sodipodi:docname="koenigsberg.svg"
   inkscape:export-filename="koenigsberg.pdf"
   inkscape:export-xdpi="400"
   inkscape:export-ydpi="400"
   xmlns:inkscape="http://www.inkscape.org/namespaces/inkscape"
   xmlns:sodipodi="http://sodipodi.sourceforge.net/DTD/sodipodi-0.dtd"
   xmlns="http://www.w3.org/2000/svg"
   xmlns:svg="http://www.w3.org/2000/svg">
  <sodipodi:namedview
     id="namedview7"
     pagecolor="#121212"
     bordercolor="#666666"
     borderopacity="1.0"
     inkscape:showpageshadow="2"
     inkscape:pageopacity="0.0"
     inkscape:pagecheckerboard="0"
     inkscape:deskcolor="#d1d1d1"
     inkscape:document-units="mm"
     showgrid="false"
     inkscape:zoom="0.79209531"
     inkscape:cx="433.65993"
     inkscape:cy="496.15241"
     inkscape:window-width="1920"
     inkscape:window-height="1043"
     inkscape:window-x="0"
     inkscape:window-y="0"
     inkscape:window-maximized="1"
     inkscape:current-layer="layer1" />
  <defs
     id="defs2" />
  <g
     inkscape:label="Layer 1"
     inkscape:groupmode="layer"
     id="layer1"
     transform="translate(-6.8594438,-6.4247793)">
    <path
       id="circle346"
       style="fill:none;stroke:#ffffff;stroke-width:1.482;stroke-linejoin:round;stroke-miterlimit:10;stroke-dasharray:none;stroke-opacity:1"
       d="m 106.37633,51.598 c -25.733153,0.02368 -54.433252,18.535451 -63.420897,41.485341 -0.561195,1.43301 -3.364748,3.52334 -4.383311,3.62875 -1.99915,0.8101 -4.992192,0.68412 -6.375966,0.71877 H 7.6004438 V 121.95959 H 33.280029 c 2.980059,0.093 3.970473,-0.0515 6.274593,1.16392 0.552048,0.27045 2.728458,1.97604 3.246543,3.50342 8.225945,24.25104 37.855106,41.14186 63.575165,41.16553 15.19771,-0.0133 37.51961,-5.97222 51.01787,-16.37808 1.11358,-0.85847 2.43236,-1.80024 3.28406,-2.26233 1.451,-0.78724 2.3117,-1.30074 4.22012,-1.33569 2.14947,-0.0493 2.83575,0.0223 4.77284,1.69892 0.96255,0.83313 1.98562,1.64092 3.06151,2.42273 13.87457,10.08201 36.53456,15.84151 51.47568,15.85445 2.37642,0 4.71857,-0.14597 7.02024,-0.42323 v -23.06578 c -2.26909,0.45782 -4.61622,0.70021 -7.02024,0.70022 -19.50026,-7e-5 -48.15565,-15.80818 -48.15572,-35.30844 7e-5,-19.500259 28.65546,-35.308369 48.15572,-35.308439 2.40402,1e-5 4.75115,0.2424 7.02024,0.70021 V 52.02123 c -2.30167,-0.277264 -4.64382,-0.423229 -7.02024,-0.42323 -15.50541,0.01343 -39.32377,6.215687 -53.00924,17.015201 -2.58252,2.03793 -5.06922,2.90612 -6.84653,2.72277 -1.76163,0.0662 -3.49954,-0.56199 -5.93935,-2.55198 C 145.04353,57.879229 121.96312,51.611636 106.37633,51.598 Z m 0,22.788791 c 19.50026,7e-5 46.8875,15.80818 46.88757,35.308439 -7e-5,19.50026 -27.38731,35.30837 -46.88757,35.30844 -19.500268,-7e-5 -43.442243,-15.80818 -43.442313,-35.30844 6.9e-5,-19.500259 23.942044,-35.308369 43.442313,-35.308439 z"
       sodipodi:nodetypes="csccccccscsscsscccccscccscscccccc" />
    <rect
       style="fill:#35b996;fill-opacity:1;stroke:#ffffff;stroke-width:0.581999;stroke-linejoin:round;stroke-miterlimit:10;stroke-dasharray:none;stroke-opacity:1"
       id="rect1112"
       width="9.8942213"
       height="28.723265"
       x="32.754665"
       y="84.840828"
       transform="rotate(-27.873304)" />
    <rect
       style="fill:#35b996;fill-opacity:1;stroke:#ffffff;stroke-width:0.581999;stroke-linejoin:round;stroke-miterlimit:10;stroke-dasharray:none;stroke-opacity:1"
       id="rect1112-3"
       width="9.8942213"
       height="28.723265"
       x="144.55409"
       y="-0.22093035"
       transform="rotate(21.948713)" />
    <rect
       style="fill:#35b996;fill-opacity:1;stroke:#ffffff;stroke-width:0.581999;stroke-linejoin:round;stroke-miterlimit:10;stroke-dasharray:none;stroke-opacity:1"
       id="rect1112-6"
       width="9.8942213"
       height="28.723265"
       x="129.90685"
       y="87.507034"
       transform="rotate(25.016804)" />
    <rect
       style="fill:#35b996;fill-opacity:1;stroke:#ffffff;stroke-width:0.581999;stroke-linejoin:round;stroke-miterlimit:10;stroke-dasharray:none;stroke-opacity:1"
       id="rect1112-7"
       width="9.8942213"
       height="28.723265"
       x="53.448193"
       y="178.57658"
       transform="rotate(-25.104804)" />
    <rect
       style="fill:#35b996;fill-opacity:1;stroke:#ffffff;stroke-width:0.581999;stroke-linejoin:round;stroke-miterlimit:10;stroke-dasharray:none;stroke-opacity:1"
       id="rect1112-5"
       width="9.8942213"
       height="28.723265"
       x="102.99204"
       y="-178.49379"
       transform="rotate(90)" />
    <rect
       style="fill:#35b996;fill-opacity:1;stroke:#ffffff;stroke-width:0.581999;stroke-linejoin:round;stroke-miterlimit:10;stroke-dasharray:none;stroke-opacity:1"
       id="rect1112-35"
       width="9.8942213"
       height="28.723265"
       x="172.27681"
       y="107.68639"
       transform="rotate(-16.627086)" />
    <rect
       style="fill:#35b996;fill-opacity:1;stroke:#ffffff;stroke-width:0.581999;stroke-linejoin:round;stroke-miterlimit:10;stroke-dasharray:none;stroke-opacity:1"
       id="rect1112-62"
       width="9.8942213"
       height="28.723265"
       x="229.31042"
       y="87.980232"
       transform="rotate(13.252059)" />
    <circle
       style="fill:#35b996;fill-opacity:1;stroke:#ffffff;stroke-width:0.581999;stroke-linejoin:round;stroke-miterlimit:10;stroke-dasharray:none;stroke-opacity:1"
       id="path1234"
       cx="106.54874"
       cy="107.86095"
       r="6.5419784" />
    <circle
       style="fill:#35b996;fill-opacity:1;stroke:#ffffff;stroke-width:0.581999;stroke-linejoin:round;stroke-miterlimit:10;stroke-dasharray:none;stroke-opacity:1"
       id="circle1250"
       cx="106.54874"
       cy="13.257757"
       r="6.5419784" />
    <circle
       style="fill:#35b996;fill-opacity:1;stroke:#ffffff;stroke-width:0.581999;stroke-linejoin:round;stroke-miterlimit:10;stroke-dasharray:none;stroke-opacity:1"
       id="circle1252"
       cx="106.54874"
       cy="201.88016"
       r="6.5419784" />
    <circle
       style="fill:#35b996;fill-opacity:1;stroke:#ffffff;stroke-width:0.581999;stroke-linejoin:round;stroke-miterlimit:10;stroke-dasharray:none;stroke-opacity:1"
       id="circle1254"
       cx="213.31125"
       cy="107.86095"
       r="6.5419784" />
    <path
       style="fill:none;stroke:#ffffff;stroke-width:0.765;stroke-linecap:butt;stroke-linejoin:miter;stroke-dasharray:none;stroke-opacity:1"
       d="m 106.17477,13.081413 c -64.900448,26.181433 -15.71627,75.786898 0.0356,95.175827 15.94132,-18.704209 63.01944,-66.695145 -0.0356,-95.175827 z"
       id="path1321"
       sodipodi:nodetypes="ccc" />
    <path
       style="fill:none;stroke:#ffffff;stroke-width:0.765;stroke-linecap:butt;stroke-linejoin:miter;stroke-dasharray:none;stroke-opacity:1"
       d="m 106.18013,203.24359 c 64.90045,-26.18143 15.71627,-75.7869 -0.0356,-95.17583 -15.94132,18.70421 -63.019433,66.69515 0.0356,95.17583 z"
       id="path1323"
       sodipodi:nodetypes="ccc" />
    <path
       style="fill:none;stroke:#ffffff;stroke-width:0.765;stroke-linecap:butt;stroke-linejoin:miter;stroke-dasharray:none;stroke-opacity:1"
       d="m 106.09934,108.12075 107.21191,-0.2598 C 207.18891,23.047301 162.1865,8.1636348 106.17477,13.081413"
       id="path1325"
       sodipodi:nodetypes="ccc" />
    <path
       style="fill:none;stroke:#ffffff;stroke-width:0.765;stroke-linecap:butt;stroke-linejoin:miter;stroke-dasharray:none;stroke-opacity:1"
       d="m 213.31125,107.86095 c -7.40334,50.24907 -10.12961,103.54737 -107.13112,95.38264"
       id="path1327"
       sodipodi:nodetypes="cc" />
  </g>
</svg>
