<svg width="469.951" height="693.162" version="1.1" id="svg306" xmlns="http://www.w3.org/2000/svg"><g id="g304" transform="translate(-152.977 -77.388)"><path style="mix-blend-mode:normal;fill:#35ba97;fill-opacity:1;stroke:#e5e5e5;stroke-width:1.51181px;stroke-linecap:butt;stroke-linejoin:bevel;stroke-miterlimit:4;stroke-dasharray:none;stroke-opacity:1;paint-order:markers fill stroke" id="polygon26" transform="translate(10 46.016)" d="m612.428 65.888-70.225 93.464-111.28-11.848 14.602-63.53H310.38L143.478 65.888z"/><path style="mix-blend-mode:normal;fill:#35ba97;fill-opacity:1;stroke:#e5e5e5;stroke-width:1.51181px;stroke-linecap:butt;stroke-linejoin:bevel;stroke-miterlimit:4;stroke-dasharray:none;stroke-opacity:1;paint-order:markers fill stroke" id="polygon110" transform="translate(10 46.016)" d="M430.923 147.504v6.629l14.602-61.702v-8.457z"/><path style="mix-blend-mode:normal;fill:#35ba97;fill-opacity:1;stroke:#e5e5e5;stroke-width:1.51181px;stroke-linecap:butt;stroke-linejoin:bevel;stroke-miterlimit:4;stroke-dasharray:none;stroke-opacity:1;paint-order:markers fill stroke" id="polygon106" transform="translate(10 46.016)" d="M310.38 83.974v8.457l14.603 61.702v-6.63z"/><path style="mix-blend-mode:normal;fill:#35ba97;fill-opacity:1;stroke:#e5e5e5;stroke-width:1.51181px;stroke-linecap:butt;stroke-linejoin:bevel;stroke-miterlimit:4;stroke-dasharray:none;stroke-opacity:1;paint-order:markers fill stroke" id="polygon248" transform="translate(10 46.016)" d="M445.525 83.974v8.457H310.38v-8.457z"/><path style="mix-blend-mode:normal;fill:#35ba97;fill-opacity:1;stroke:#e5e5e5;stroke-width:1.51181px;stroke-linecap:butt;stroke-linejoin:bevel;stroke-miterlimit:4;stroke-dasharray:none;stroke-opacity:1;paint-order:markers fill stroke" id="polygon20" transform="translate(10 46.016)" d="m612.428 690.017-70.225-93.464 19.779-12.06 21.37 23.985v-46.173l29.076-18.321z"/><path style="mix-blend-mode:normal;fill:#35ba97;fill-opacity:1;stroke:#e5e5e5;stroke-width:1.51181px;stroke-linecap:butt;stroke-linejoin:bevel;stroke-miterlimit:4;stroke-dasharray:none;stroke-opacity:1;paint-order:markers fill stroke" id="polygon24" transform="translate(10 46.016)" d="m612.428 543.984-29.076 18.321-21.37-19.18v41.369l-19.78 12.06V494.256z"/><path style="mix-blend-mode:normal;fill:#35ba97;fill-opacity:1;stroke:#e5e5e5;stroke-width:1.51181px;stroke-linecap:butt;stroke-linejoin:bevel;stroke-miterlimit:4;stroke-dasharray:none;stroke-opacity:1;paint-order:markers fill stroke" id="polygon132" transform="translate(10 46.016)" d="M561.982 584.494h-7.046l20.552 23.984h7.864z"/><path style="mix-blend-mode:normal;fill:#35ba97;fill-opacity:1;stroke:#e5e5e5;stroke-width:1.51181px;stroke-linecap:butt;stroke-linejoin:bevel;stroke-miterlimit:4;stroke-dasharray:none;stroke-opacity:1;paint-order:markers fill stroke" id="polygon134" transform="translate(10 46.016)" d="M561.982 543.125h-7.046v41.369h7.046z"/><path style="mix-blend-mode:normal;fill:#35ba97;fill-opacity:1;stroke:#e5e5e5;stroke-width:1.51181px;stroke-linecap:butt;stroke-linejoin:bevel;stroke-miterlimit:4;stroke-dasharray:none;stroke-opacity:1;paint-order:markers fill stroke" id="polygon144" transform="translate(10 46.016)" d="M583.352 562.305h-7.864l-20.552-19.18h7.046z"/><path style="mix-blend-mode:normal;fill:#35ba97;fill-opacity:1;stroke:#e5e5e5;stroke-width:1.51181px;stroke-linecap:butt;stroke-linejoin:bevel;stroke-miterlimit:4;stroke-dasharray:none;stroke-opacity:1;paint-order:markers fill stroke" id="polygon172" transform="translate(10 46.016)" d="M583.352 608.478h-7.864v-46.173h7.864z"/><path style="mix-blend-mode:normal;fill:#35ba97;fill-opacity:1;stroke:#e5e5e5;stroke-width:1.51181px;stroke-linecap:butt;stroke-linejoin:bevel;stroke-miterlimit:4;stroke-dasharray:none;stroke-opacity:1;paint-order:markers fill stroke" id="polygon266" transform="translate(10 46.016)" d="m458.587 567.53 8.152-1.497 6.573 36.715-8.152 1.497z"/><path style="mix-blend-mode:normal;fill:#35ba97;fill-opacity:1;stroke:#e5e5e5;stroke-width:1.51181px;stroke-linecap:butt;stroke-linejoin:bevel;stroke-miterlimit:4;stroke-dasharray:none;stroke-opacity:1;paint-order:markers fill stroke" id="polygon136" transform="translate(10 46.016)" d="M484.62 620.663v-6.982l14.71 32.507v7.945z"/><path style="mix-blend-mode:normal;fill:#35ba97;fill-opacity:1;stroke:#e5e5e5;stroke-width:1.51181px;stroke-linecap:butt;stroke-linejoin:bevel;stroke-miterlimit:4;stroke-dasharray:none;stroke-opacity:1;paint-order:markers fill stroke" id="polygon154" transform="translate(10 46.016)" d="M499.33 654.133v-7.945h58.316v7.945z"/><path style="mix-blend-mode:normal;fill:#35ba97;fill-opacity:1;stroke:#e5e5e5;stroke-width:1.51181px;stroke-linecap:butt;stroke-linejoin:bevel;stroke-miterlimit:4;stroke-dasharray:none;stroke-opacity:1;paint-order:markers fill stroke" id="polygon4" transform="translate(10 46.016)" d="m143.477 655.384 70.226-83.091v24.26l-70.225 93.464z"/><path style="mix-blend-mode:normal;fill:#35ba97;fill-opacity:1;stroke:#e5e5e5;stroke-width:1.51181px;stroke-linecap:butt;stroke-linejoin:bevel;stroke-miterlimit:4;stroke-dasharray:none;stroke-opacity:1;paint-order:markers fill stroke" id="polygon6" transform="translate(10 46.016)" d="m397.915 676.412-1.172-17.525 91.412 31.13H143.478l70.225-93.464 61.587 9.169-31.862 70.69z"/><path style="mix-blend-mode:normal;fill:#35ba97;fill-opacity:1;stroke:#e5e5e5;stroke-width:1.51181px;stroke-linecap:butt;stroke-linejoin:bevel;stroke-miterlimit:4;stroke-dasharray:none;stroke-opacity:1;paint-order:markers fill stroke" id="polygon10" transform="translate(10 46.016)" d="M143.478 65.888 310.38 83.974l14.603 63.53h105.94l111.28 11.848h-328.5z"/><path style="mix-blend-mode:normal;fill:#35ba97;fill-opacity:1;stroke:#e5e5e5;stroke-width:1.51181px;stroke-linecap:butt;stroke-linejoin:bevel;stroke-miterlimit:4;stroke-dasharray:none;stroke-opacity:1;paint-order:markers fill stroke" id="polygon12" transform="translate(10 46.016)" d="M213.703 596.553v-24.26L386.509 438.04l49.658 49.343 18.982 109.17z"/><path style="mix-blend-mode:normal;fill:#35ba97;fill-opacity:1;stroke:#e5e5e5;stroke-width:1.51181px;stroke-linecap:butt;stroke-linejoin:bevel;stroke-miterlimit:4;stroke-dasharray:none;stroke-opacity:1;paint-order:markers fill stroke" id="polygon14" transform="translate(10 46.016)" d="M391.692 358.871 213.703 194.909v-35.557h328.5v135.93z"/><path style="mix-blend-mode:normal;fill:#35ba97;fill-opacity:1;stroke:#e5e5e5;stroke-width:1.51181px;stroke-linecap:butt;stroke-linejoin:bevel;stroke-miterlimit:4;stroke-dasharray:none;stroke-opacity:1;paint-order:markers fill stroke" id="polygon16" transform="translate(10 46.016)" d="m436.167 487.384 106.036 6.873v102.296h-87.054z"/><path style="mix-blend-mode:normal;fill:#35ba97;fill-opacity:1;stroke:#e5e5e5;stroke-width:1.51181px;stroke-linecap:butt;stroke-linejoin:bevel;stroke-miterlimit:4;stroke-dasharray:none;stroke-opacity:1;paint-order:markers fill stroke" id="polygon18" transform="translate(10 46.016)" d="m488.155 690.017-91.412-31.13-3.556-53.165H275.29l-61.587-9.169h241.446z"/><path style="mix-blend-mode:normal;fill:#35ba97;fill-opacity:1;stroke:#e5e5e5;stroke-width:1.51181px;stroke-linecap:butt;stroke-linejoin:bevel;stroke-miterlimit:4;stroke-dasharray:none;stroke-opacity:1;paint-order:markers fill stroke" id="polygon22" transform="translate(10 46.016)" d="m612.428 690.017-54.781-35.884-21.777-33.47h-51.25l-29.47-24.11h87.053z"/><path style="mix-blend-mode:normal;fill:#35ba97;fill-opacity:1;stroke:#e5e5e5;stroke-width:1.51181px;stroke-linecap:butt;stroke-linejoin:bevel;stroke-miterlimit:4;stroke-dasharray:none;stroke-opacity:1;paint-order:markers fill stroke" id="polygon28" transform="translate(10 46.016)" d="m612.428 65.888-22.083 76.137-33.636 37.362v72.672l-14.506 43.222V159.352z"/><path style="mix-blend-mode:normal;fill:#35ba97;fill-opacity:1;stroke:#e5e5e5;stroke-width:1.51181px;stroke-linecap:butt;stroke-linejoin:bevel;stroke-miterlimit:4;stroke-dasharray:none;stroke-opacity:1;paint-order:markers fill stroke" id="polygon32" transform="translate(10 46.016)" d="M152.455 74.866v39.837l64.864 75.724v-28.379z"/><path style="mix-blend-mode:normal;fill:#35ba97;fill-opacity:1;stroke:#e5e5e5;stroke-width:1.51181px;stroke-linecap:butt;stroke-linejoin:bevel;stroke-miterlimit:4;stroke-dasharray:none;stroke-opacity:1;paint-order:markers fill stroke" id="polygon34" transform="translate(10 46.016)" d="M152.455 657.556v23.484l64.864-87.183v-16.729z"/><path style="mix-blend-mode:normal;fill:#35ba97;fill-opacity:1;stroke:#e5e5e5;stroke-width:1.51181px;stroke-linecap:butt;stroke-linejoin:bevel;stroke-miterlimit:4;stroke-dasharray:none;stroke-opacity:1;paint-order:markers fill stroke" id="polygon36" transform="translate(10 46.016)" d="M386.412 443.326 217.32 577.128v16.73h235.315l-18.452-103.066z"/><path style="mix-blend-mode:normal;fill:#35ba97;fill-opacity:1;stroke:#e5e5e5;stroke-width:1.51181px;stroke-linecap:butt;stroke-linejoin:bevel;stroke-miterlimit:4;stroke-dasharray:none;stroke-opacity:1;paint-order:markers fill stroke" id="polygon38" transform="translate(10 46.016)" d="M217.319 162.048v28.379l175.264 164.355 146.004-63.002V162.048z"/><path style="mix-blend-mode:normal;fill:#35ba97;fill-opacity:1;stroke:#e5e5e5;stroke-width:1.51181px;stroke-linecap:butt;stroke-linejoin:bevel;stroke-miterlimit:4;stroke-dasharray:none;stroke-opacity:1;paint-order:markers fill stroke" id="polygon40" transform="translate(10 46.016)" d="m441.02 492.698 18.111 101.16h79.456v-94.642z"/><path id="polygon42" style="mix-blend-mode:normal;fill:#35ba97;fill-opacity:1;stroke:#e5e5e5;stroke-width:1.51181px;stroke-linecap:butt;stroke-linejoin:bevel;stroke-miterlimit:4;stroke-dasharray:none;stroke-opacity:1;paint-order:markers fill stroke" d="m162.456 120.881 64.863 87.184h321.268l64.863-87.184zm157.924 17.567h135.146l-14.603 61.7h-105.94Z"/><path id="polygon48" style="mix-blend-mode:normal;fill:#35ba97;fill-opacity:1;stroke:#e5e5e5;stroke-width:1.51181px;stroke-linecap:butt;stroke-linejoin:bevel;stroke-miterlimit:4;stroke-dasharray:none;stroke-opacity:1;paint-order:markers fill stroke" d="M548.587 545.233v94.64l64.863 87.182V594.2Zm16.35 43.908 20.55 19.18v46.174l-20.55-23.985z"/><path style="mix-blend-mode:normal;fill:#35ba97;fill-opacity:1;stroke:#e5e5e5;stroke-width:1.51181px;stroke-linecap:butt;stroke-linejoin:bevel;stroke-miterlimit:4;stroke-dasharray:none;stroke-opacity:1;paint-order:markers fill stroke" id="polygon54" transform="translate(10 46.016)" d="m143.477 655.384 37.044-242.899 15.067-2.635v-51.252l18.115-163.69v377.385z"/><path style="mix-blend-mode:normal;fill:#35ba97;fill-opacity:1;stroke:#e5e5e5;stroke-width:1.51181px;stroke-linecap:butt;stroke-linejoin:bevel;stroke-miterlimit:4;stroke-dasharray:none;stroke-opacity:1;paint-order:markers fill stroke" id="polygon56" transform="translate(10 46.016)" d="m391.692 358.871-5.183 79.17-172.806 134.252V194.909z"/><path style="mix-blend-mode:normal;fill:#35ba97;fill-opacity:1;stroke:#e5e5e5;stroke-width:1.51181px;stroke-linecap:butt;stroke-linejoin:bevel;stroke-miterlimit:4;stroke-dasharray:none;stroke-opacity:1;paint-order:markers fill stroke" id="polygon58" transform="translate(10 46.016)" d="m170.44 414.249 10.081-1.764-37.044 242.899V116.648l70.226 78.26-18.115 163.69-25.149-2.67z"/><path style="mix-blend-mode:normal;fill:#35ba97;fill-opacity:1;stroke:#e5e5e5;stroke-width:1.51181px;stroke-linecap:butt;stroke-linejoin:bevel;stroke-miterlimit:4;stroke-dasharray:none;stroke-opacity:1;paint-order:markers fill stroke" id="polygon60" transform="translate(10 46.016)" d="m152.455 657.556 64.864-80.428 169.093-133.802-26.169 24.561L336.47 486.7l-5.64 14.785z"/><path id="polygon64" style="mix-blend-mode:normal;fill:#35ba97;fill-opacity:1;stroke:#e5e5e5;stroke-width:1.51181px;stroke-linecap:butt;stroke-linejoin:bevel;stroke-miterlimit:4;stroke-dasharray:none;stroke-opacity:1;paint-order:markers fill stroke" d="M162.456 173.028v519.096l64.863-77.133V245.209Zm25.928 228.918 24.187 2.668v51.252l-24.187 4.398z"/><path style="mix-blend-mode:normal;fill:#35ba97;fill-opacity:1;stroke:#e5e5e5;stroke-width:1.51181px;stroke-linecap:butt;stroke-linejoin:bevel;stroke-miterlimit:4;stroke-dasharray:none;stroke-opacity:1;paint-order:markers fill stroke" id="polygon68" transform="translate(10 46.016)" d="M388.635 359.847 217.32 199.194v369.78L383.555 437.43z"/><path style="mix-blend-mode:normal;fill:#35ba97;fill-opacity:1;stroke:#e5e5e5;stroke-width:1.51181px;stroke-linecap:butt;stroke-linejoin:bevel;stroke-miterlimit:4;stroke-dasharray:none;stroke-opacity:1;paint-order:markers fill stroke" id="polygon70" transform="translate(10 46.016)" d="m244.057 213.302 148.526 141.48-175.264-164.355-64.864-75.724 34.515 36.342 35.746 42.47 22.114 20.738z"/><path style="mix-blend-mode:normal;fill:#35ba97;fill-opacity:1;stroke:#e5e5e5;stroke-width:1.51181px;stroke-linecap:butt;stroke-linejoin:bevel;stroke-miterlimit:4;stroke-dasharray:none;stroke-opacity:1;paint-order:markers fill stroke" id="polygon78" transform="translate(10 46.016)" d="m466.487 539.033-2.765 20.609-13.6-28.811 5.342 29.843 3.667 33.183-18.11-101.159z"/><path style="mix-blend-mode:normal;fill:#35ba97;fill-opacity:1;stroke:#e5e5e5;stroke-width:1.51181px;stroke-linecap:butt;stroke-linejoin:bevel;stroke-miterlimit:4;stroke-dasharray:none;stroke-opacity:1;paint-order:markers fill stroke" id="polygon80" transform="translate(10 46.016)" d="m466.739 566.033-3.017-6.391 2.765-20.61L491.91 681.04l-32.78-87.183-3.667-33.183 17.848 42.074z"/><path style="mix-blend-mode:normal;fill:#35ba97;fill-opacity:1;stroke:#e5e5e5;stroke-width:1.51181px;stroke-linecap:butt;stroke-linejoin:bevel;stroke-miterlimit:4;stroke-dasharray:none;stroke-opacity:1;paint-order:markers fill stroke" id="polygon84" transform="translate(10 46.016)" d="M393.187 605.722v-6.553H275.29v6.553z"/><path style="mix-blend-mode:normal;fill:#35ba97;fill-opacity:1;stroke:#e5e5e5;stroke-width:1.51181px;stroke-linecap:butt;stroke-linejoin:bevel;stroke-miterlimit:4;stroke-dasharray:none;stroke-opacity:1;paint-order:markers fill stroke" id="polygon90" transform="translate(10 46.016)" d="M535.87 620.663v-6.982h-51.25v6.982z"/><path style="mix-blend-mode:normal;fill:#35ba97;fill-opacity:1;stroke:#e5e5e5;stroke-width:1.51181px;stroke-linecap:butt;stroke-linejoin:bevel;stroke-miterlimit:4;stroke-dasharray:none;stroke-opacity:1;paint-order:markers fill stroke" id="polygon92" transform="translate(10 46.016)" d="M557.647 654.133v-7.945L535.87 613.68v6.982z"/><path style="mix-blend-mode:normal;fill:#35ba97;fill-opacity:1;stroke:#e5e5e5;stroke-width:1.51181px;stroke-linecap:butt;stroke-linejoin:bevel;stroke-miterlimit:4;stroke-dasharray:none;stroke-opacity:1;paint-order:markers fill stroke" id="polygon94" transform="translate(10 46.016)" d="m436.167 487.384-49.658-49.343 5.183-79.17 150.51-63.59v198.976z"/><path style="mix-blend-mode:normal;fill:#35ba97;fill-opacity:1;stroke:#e5e5e5;stroke-width:1.51181px;stroke-linecap:butt;stroke-linejoin:bevel;stroke-miterlimit:4;stroke-dasharray:none;stroke-opacity:1;paint-order:markers fill stroke" id="polygon96" transform="translate(10 46.016)" d="m612.428 543.984-70.225-49.727 10.95-51.478 42.44 15.703V341.989l16.835-82.054z"/><path style="mix-blend-mode:normal;fill:#35ba97;fill-opacity:1;stroke:#e5e5e5;stroke-width:1.51181px;stroke-linecap:butt;stroke-linejoin:bevel;stroke-miterlimit:4;stroke-dasharray:none;stroke-opacity:1;paint-order:markers fill stroke" id="polygon100" transform="translate(10 46.016)" d="M556.71 179.387h-6.845v72.672h6.844z"/><path style="mix-blend-mode:normal;fill:#35ba97;fill-opacity:1;stroke:#e5e5e5;stroke-width:1.51181px;stroke-linecap:butt;stroke-linejoin:bevel;stroke-miterlimit:4;stroke-dasharray:none;stroke-opacity:1;paint-order:markers fill stroke" id="polygon102" transform="translate(10 46.016)" d="M590.345 142.025h-8.132l-32.348 37.362h6.844z"/><path style="mix-blend-mode:normal;fill:#35ba97;fill-opacity:1;stroke:#e5e5e5;stroke-width:1.51181px;stroke-linecap:butt;stroke-linejoin:bevel;stroke-miterlimit:4;stroke-dasharray:none;stroke-opacity:1;paint-order:markers fill stroke" id="polygon104" transform="translate(10 46.016)" d="m396.743 658.887 1.172 17.525v-8.586l-4.728-68.657v6.553z"/><path style="mix-blend-mode:normal;fill:#35ba97;fill-opacity:1;stroke:#e5e5e5;stroke-width:1.51181px;stroke-linecap:butt;stroke-linejoin:bevel;stroke-miterlimit:4;stroke-dasharray:none;stroke-opacity:1;paint-order:markers fill stroke" id="polygon108" transform="translate(10 46.016)" d="M324.983 147.504v6.629h105.94v-6.63z"/><path style="mix-blend-mode:normal;fill:#35ba97;fill-opacity:1;stroke:#e5e5e5;stroke-width:1.51181px;stroke-linecap:butt;stroke-linejoin:bevel;stroke-miterlimit:4;stroke-dasharray:none;stroke-opacity:1;paint-order:markers fill stroke" id="polygon114" transform="translate(10 46.016)" d="m603.45 548.183-87.818-17.777-25.769-28.534-30.25-2.02-18.593-7.154 97.566 6.518z"/><path style="mix-blend-mode:normal;fill:#35ba97;fill-opacity:1;stroke:#e5e5e5;stroke-width:1.51181px;stroke-linecap:butt;stroke-linejoin:bevel;stroke-miterlimit:4;stroke-dasharray:none;stroke-opacity:1;paint-order:markers fill stroke" id="polygon118" transform="translate(10 46.016)" d="m394.988 360.709-5.049 77.106 48.619 48.31 100.028 6.682V298.745z"/><path style="mix-blend-mode:normal;fill:#35ba97;fill-opacity:1;stroke:#e5e5e5;stroke-width:1.51181px;stroke-linecap:butt;stroke-linejoin:bevel;stroke-miterlimit:4;stroke-dasharray:none;stroke-opacity:1;paint-order:markers fill stroke" id="polygon128" transform="translate(10 46.016)" d="m218.124 198.444 4.592-4.93-35.746-42.469-5.65 6.065z"/><path style="mix-blend-mode:normal;fill:#35ba97;fill-opacity:1;stroke:#e5e5e5;stroke-width:1.51181px;stroke-linecap:butt;stroke-linejoin:bevel;stroke-miterlimit:4;stroke-dasharray:none;stroke-opacity:1;paint-order:markers fill stroke" id="polygon130" transform="translate(10 46.016)" d="m240.238 219.183 4.592-4.93-22.114-20.738-4.592 4.93z"/><path id="polygon44" style="mix-blend-mode:normal;fill:#35ba97;fill-opacity:1;stroke:#e5e5e5;stroke-width:1.51181px;stroke-linecap:butt;stroke-linejoin:bevel;stroke-miterlimit:4;stroke-dasharray:none;stroke-opacity:1;paint-order:markers fill stroke" d="m469.132 639.874 32.779 87.181H613.45l-64.863-87.181Zm25.488 19.824h51.25l21.777 32.506H509.33z"/><path style="mix-blend-mode:normal;fill:#35ba97;fill-opacity:1;stroke:#e5e5e5;stroke-width:1.51181px;stroke-linecap:butt;stroke-linejoin:bevel;stroke-miterlimit:4;stroke-dasharray:none;stroke-opacity:1;paint-order:markers fill stroke" id="polygon138" transform="translate(10 46.016)" d="m398.49 345.425 84.387-32.52-10.684 6.623 27.836-12.012 22.678-13.085 80.744-37.448-64.864 34.797-146.004 63.002z"/><path style="mix-blend-mode:normal;fill:#35ba97;fill-opacity:1;stroke:#e5e5e5;stroke-width:1.51181px;stroke-linecap:butt;stroke-linejoin:bevel;stroke-miterlimit:4;stroke-dasharray:none;stroke-opacity:1;paint-order:markers fill stroke" id="polygon142" transform="translate(10 46.016)" d="m240.238 219.183-31.71-36.56 5.65-6.064 29.88 36.743.772.95z"/><path style="mix-blend-mode:normal;fill:#35ba97;fill-opacity:1;stroke:#e5e5e5;stroke-width:1.51181px;stroke-linecap:butt;stroke-linejoin:bevel;stroke-miterlimit:4;stroke-dasharray:none;stroke-opacity:1;paint-order:markers fill stroke" id="polygon146" transform="translate(10 46.016)" d="m392.583 354.782-148.526-141.48-29.88-36.743-27.207-25.514-34.515-36.342L398.49 345.425z"/><path style="mix-blend-mode:normal;fill:#35ba97;fill-opacity:1;stroke:#e5e5e5;stroke-width:1.51181px;stroke-linecap:butt;stroke-linejoin:bevel;stroke-miterlimit:4;stroke-dasharray:none;stroke-opacity:1;paint-order:markers fill stroke" id="polygon148" transform="translate(10 46.016)" d="M556.71 252.06h-6.845l32.348-23.69h8.132z"/><path style="mix-blend-mode:normal;fill:#35ba97;fill-opacity:1;stroke:#e5e5e5;stroke-width:1.51181px;stroke-linecap:butt;stroke-linejoin:bevel;stroke-miterlimit:4;stroke-dasharray:none;stroke-opacity:1;paint-order:markers fill stroke" id="polygon150" transform="translate(10 46.016)" d="m448.838 561.891 6.626-1.217-5.343-29.843-6.626 1.217z"/><path style="mix-blend-mode:normal;fill:#35ba97;fill-opacity:1;stroke:#e5e5e5;stroke-width:1.51181px;stroke-linecap:butt;stroke-linejoin:bevel;stroke-miterlimit:4;stroke-dasharray:none;stroke-opacity:1;paint-order:markers fill stroke" id="polygon152" transform="translate(10 46.016)" d="m465.16 604.245 8.152-1.497-17.848-42.074-6.626 1.217z"/><path style="mix-blend-mode:normal;fill:#35ba97;fill-opacity:1;stroke:#e5e5e5;stroke-width:1.51181px;stroke-linecap:butt;stroke-linejoin:bevel;stroke-miterlimit:4;stroke-dasharray:none;stroke-opacity:1;paint-order:markers fill stroke" id="polygon156" transform="translate(10 46.016)" d="m595.592 458.482-42.438-15.703h-6.708l5.85 2.251 34.963 13.452z"/><path style="mix-blend-mode:normal;fill:#35ba97;fill-opacity:1;stroke:#e5e5e5;stroke-width:1.51181px;stroke-linecap:butt;stroke-linejoin:bevel;stroke-miterlimit:4;stroke-dasharray:none;stroke-opacity:1;paint-order:markers fill stroke" id="polygon158" transform="translate(10 46.016)" d="M553.154 349.002h-6.708v93.777h6.708z"/><path style="mix-blend-mode:normal;fill:#35ba97;fill-opacity:1;stroke:#e5e5e5;stroke-width:1.51181px;stroke-linecap:butt;stroke-linejoin:bevel;stroke-miterlimit:4;stroke-dasharray:none;stroke-opacity:1;paint-order:markers fill stroke" id="polygon162" transform="translate(10 46.016)" d="m386.412 443.326 47.77 47.466-7.287-3.461-.59-1.32-21.506-21.369z"/><path style="mix-blend-mode:normal;fill:#35ba97;fill-opacity:1;stroke:#e5e5e5;stroke-width:1.51181px;stroke-linecap:butt;stroke-linejoin:bevel;stroke-miterlimit:4;stroke-dasharray:none;stroke-opacity:1;paint-order:markers fill stroke" id="polygon164" transform="translate(10 46.016)" d="m456.887 536.357-67.059-66.633-3.416-26.398 18.387 21.316 6.182 19.961 26.457 26.29-10.543-23.562 7.287 3.461z"/><path style="mix-blend-mode:normal;fill:#35ba97;fill-opacity:1;stroke:#e5e5e5;stroke-width:1.51181px;stroke-linecap:butt;stroke-linejoin:bevel;stroke-miterlimit:4;stroke-dasharray:none;stroke-opacity:1;paint-order:markers fill stroke" id="polygon166" transform="translate(10 46.016)" d="M595.592 341.99h-8.333l-40.813 7.012h6.708z"/><path style="mix-blend-mode:normal;fill:#35ba97;fill-opacity:1;stroke:#e5e5e5;stroke-width:1.51181px;stroke-linecap:butt;stroke-linejoin:bevel;stroke-miterlimit:4;stroke-dasharray:none;stroke-opacity:1;paint-order:markers fill stroke" id="polygon174" transform="translate(10 46.016)" d="m443.495 532.048 6.626-1.217 13.6 28.81 3.018 6.392-8.152 1.498-3.412-8.022z"/><path style="mix-blend-mode:normal;fill:#35ba97;fill-opacity:1;stroke:#e5e5e5;stroke-width:1.51181px;stroke-linecap:butt;stroke-linejoin:bevel;stroke-miterlimit:4;stroke-dasharray:none;stroke-opacity:1;paint-order:markers fill stroke" id="polygon176" transform="translate(10 46.016)" d="m489.863 501.872.47-6.72-30.25-2.021-.47 6.72z"/><path style="mix-blend-mode:normal;fill:#35ba97;fill-opacity:1;stroke:#e5e5e5;stroke-width:1.51181px;stroke-linecap:butt;stroke-linejoin:bevel;stroke-miterlimit:4;stroke-dasharray:none;stroke-opacity:1;paint-order:markers fill stroke" id="polygon178" transform="translate(10 46.016)" d="m489.863 501.872 25.769 28.534.579-8.268-15.29-15.946-10.587-11.04z"/><path style="mix-blend-mode:normal;fill:#35ba97;fill-opacity:1;stroke:#e5e5e5;stroke-width:1.51181px;stroke-linecap:butt;stroke-linejoin:bevel;stroke-miterlimit:4;stroke-dasharray:none;stroke-opacity:1;paint-order:markers fill stroke" id="polygon180" transform="translate(10 46.016)" d="M590.345 228.37h-8.132v-86.346h8.132z"/><path id="polygon50" style="mix-blend-mode:normal;fill:#35ba97;fill-opacity:1;stroke:#e5e5e5;stroke-width:1.51181px;stroke-linecap:butt;stroke-linejoin:bevel;stroke-miterlimit:4;stroke-dasharray:none;stroke-opacity:1;paint-order:markers fill stroke" d="m613.45 120.881-64.863 87.184v129.73L613.45 303zm-21.236 67.16v86.346l-32.35 23.69v-72.672z"/><path style="mix-blend-mode:normal;fill:#35ba97;fill-opacity:1;stroke:#e5e5e5;stroke-width:1.51181px;stroke-linecap:butt;stroke-linejoin:bevel;stroke-miterlimit:4;stroke-dasharray:none;stroke-opacity:1;paint-order:markers fill stroke" id="polygon198" transform="translate(10 46.016)" d="M195.588 409.85h6.983v-51.252h-6.983z"/><path style="mix-blend-mode:normal;fill:#35ba97;fill-opacity:1;stroke:#e5e5e5;stroke-width:1.51181px;stroke-linecap:butt;stroke-linejoin:bevel;stroke-miterlimit:4;stroke-dasharray:none;stroke-opacity:1;paint-order:markers fill stroke" id="polygon200" transform="translate(10 46.016)" d="m459.613 499.851.47-6.72 18.913 26.52-.58 8.27z"/><path style="mix-blend-mode:normal;fill:#35ba97;fill-opacity:1;stroke:#e5e5e5;stroke-width:1.51181px;stroke-linecap:butt;stroke-linejoin:bevel;stroke-miterlimit:4;stroke-dasharray:none;stroke-opacity:1;paint-order:markers fill stroke" id="polygon204" transform="translate(10 46.016)" d="M389.828 469.724 152.455 657.556 330.83 501.484l-3.912 10.256 29.249-23.144 4.077-20.709 26.17-24.561z"/><path style="mix-blend-mode:normal;fill:#35ba97;fill-opacity:1;stroke:#e5e5e5;stroke-width:1.51181px;stroke-linecap:butt;stroke-linejoin:bevel;stroke-miterlimit:4;stroke-dasharray:none;stroke-opacity:1;paint-order:markers fill stroke" id="polygon206" transform="translate(10 46.016)" d="m502.715 313.695-2.686-6.179-27.836 12.012 2.686 6.178z"/><path style="mix-blend-mode:normal;fill:#35ba97;fill-opacity:1;stroke:#e5e5e5;stroke-width:1.51181px;stroke-linecap:butt;stroke-linejoin:bevel;stroke-miterlimit:4;stroke-dasharray:none;stroke-opacity:1;paint-order:markers fill stroke" id="polygon208" transform="translate(10 46.016)" d="m502.715 313.695 28.728-14.797-3.304-7.6-5.432 3.133-22.678 13.085z"/><path style="mix-blend-mode:normal;fill:#35ba97;fill-opacity:1;stroke:#e5e5e5;stroke-width:1.51181px;stroke-linecap:butt;stroke-linejoin:bevel;stroke-miterlimit:4;stroke-dasharray:none;stroke-opacity:1;paint-order:markers fill stroke" id="polygon210" transform="translate(10 46.016)" d="m394.78 461.987-4.84-24.172.797.804 2.944 13.97 2.437-37.22-2.317-4.772 1.187-49.888 6.879-6.963z"/><path style="mix-blend-mode:normal;fill:#35ba97;fill-opacity:1;stroke:#e5e5e5;stroke-width:1.51181px;stroke-linecap:butt;stroke-linejoin:bevel;stroke-miterlimit:4;stroke-dasharray:none;stroke-opacity:1;paint-order:markers fill stroke" id="polygon212" transform="translate(10 46.016)" d="m389.94 437.815 5.048-77.106-1.187 49.888-1.083-2.23-1.981 30.252z"/><path style="mix-blend-mode:normal;fill:#35ba97;fill-opacity:1;stroke:#e5e5e5;stroke-width:1.51181px;stroke-linecap:butt;stroke-linejoin:bevel;stroke-miterlimit:4;stroke-dasharray:none;stroke-opacity:1;paint-order:markers fill stroke" id="polygon216" transform="translate(10 46.016)" d="m384.016 438.149 1.981-30.253 2.638-48.049-5.08 77.584 2.263 24.018-.406-9.44z"/><path style="fill:#73e6c8;fill-opacity:1;stroke:#fff;stroke-width:3.77953px;stroke-linecap:butt;stroke-linejoin:miter;stroke-miterlimit:4;stroke-dasharray:3.77953 3.77953;stroke-dashoffset:0;stroke-opacity:1" d="m227.319 226.439 60.964 204.395" id="path1263-6"/><path id="polygon76" style="mix-blend-mode:normal;fill:#35ba97;fill-opacity:1;stroke:#e5e5e5;stroke-width:1.51181px;stroke-linecap:butt;stroke-linejoin:bevel;stroke-miterlimit:4;stroke-dasharray:none;stroke-opacity:1;paint-order:markers fill stroke" d="m162.456 173.028 64.863 72.181 171.317 160.655 4.314-7.31zm28.865 30.1 27.207 25.511 31.711 36.56-22.115-20.738z"/><path style="fill:#73e6c8;fill-opacity:1;stroke:#fff;stroke-width:3.77953px;stroke-linecap:butt;stroke-linejoin:miter;stroke-miterlimit:4;stroke-dasharray:3.77953 3.77953;stroke-dashoffset:0;stroke-opacity:1" d="m466.88 609.536 51.88 15.536" id="path1263-3-6-7-5-3"/><path id="polygon88" style="mix-blend-mode:normal;fill:#35ba97;fill-opacity:1;stroke:#e5e5e5;stroke-width:1.51181px;stroke-linecap:butt;stroke-linejoin:bevel;stroke-miterlimit:4;stroke-dasharray:none;stroke-opacity:1;paint-order:markers fill stroke" d="m444.182 536.81 18.452 103.064 30.158 87.181-25.904-144.681zm9.313 41.255 11.68 27.46 3.412 8.022 6.574 36.715-16.322-42.355z"/><path style="mix-blend-mode:normal;fill:#35ba97;fill-opacity:1;stroke:#e5e5e5;stroke-width:1.51181px;stroke-linecap:butt;stroke-linejoin:bevel;stroke-miterlimit:4;stroke-dasharray:none;stroke-opacity:1;paint-order:markers fill stroke" id="polygon224" transform="translate(10 46.016)" d="m426.895 487.33 10.543 23.563 5.82-5.902-12.223-23.777-4.73 4.797z"/><path style="mix-blend-mode:normal;fill:#35ba97;fill-opacity:1;stroke:#e5e5e5;stroke-width:1.51181px;stroke-linecap:butt;stroke-linejoin:bevel;stroke-miterlimit:4;stroke-dasharray:none;stroke-opacity:1;paint-order:markers fill stroke" id="polygon222" transform="translate(10 46.016)" d="m426.305 486.011 4.73-4.797-21.506-21.37-4.73 4.798z"/><path style="mix-blend-mode:normal;fill:#35ba97;fill-opacity:1;stroke:#e5e5e5;stroke-width:1.51181px;stroke-linecap:butt;stroke-linejoin:bevel;stroke-miterlimit:4;stroke-dasharray:none;stroke-opacity:1;paint-order:markers fill stroke" id="polygon226" transform="translate(10 46.016)" d="m330.83 501.484 5.64-14.785-4.193-5.273-10.518 23.825 5.158 6.489z"/><path style="mix-blend-mode:normal;fill:#35ba97;fill-opacity:1;stroke:#e5e5e5;stroke-width:1.51181px;stroke-linecap:butt;stroke-linejoin:bevel;stroke-miterlimit:4;stroke-dasharray:none;stroke-opacity:1;paint-order:markers fill stroke" id="polygon228" transform="translate(10 46.016)" d="m360.243 467.887-4.192-5.274-23.774 18.813 4.192 5.273z"/><path style="mix-blend-mode:normal;fill:#35ba97;fill-opacity:1;stroke:#e5e5e5;stroke-width:1.51181px;stroke-linecap:butt;stroke-linejoin:bevel;stroke-miterlimit:4;stroke-dasharray:none;stroke-opacity:1;paint-order:markers fill stroke" id="polygon230" transform="translate(10 46.016)" d="m474.88 325.706-2.687-6.178 10.684-6.624 11.016-6.83 3.305 7.602-10.98 5.918z"/><path style="mix-blend-mode:normal;fill:#35ba97;fill-opacity:1;stroke:#e5e5e5;stroke-width:1.51181px;stroke-linecap:butt;stroke-linejoin:bevel;stroke-miterlimit:4;stroke-dasharray:none;stroke-opacity:1;paint-order:markers fill stroke" id="polygon242" transform="translate(10 46.016)" d="m356.166 488.596-5.158-6.489 5.043-19.494 4.192 5.274z"/><path style="mix-blend-mode:normal;fill:#35ba97;fill-opacity:1;stroke:#e5e5e5;stroke-width:1.51181px;stroke-linecap:butt;stroke-linejoin:bevel;stroke-miterlimit:4;stroke-dasharray:none;stroke-opacity:1;paint-order:markers fill stroke" id="polygon244" transform="translate(10 46.016)" d="m404.799 464.642 4.73-4.797 7.27 18.856-5.818 5.902z"/><path style="mix-blend-mode:normal;fill:#35ba97;fill-opacity:1;stroke:#e5e5e5;stroke-width:1.51181px;stroke-linecap:butt;stroke-linejoin:bevel;stroke-miterlimit:4;stroke-dasharray:none;stroke-opacity:1;paint-order:markers fill stroke" id="polygon252" transform="translate(10 46.016)" d="m384.016 438.149 6.721.47 1.98-30.252-6.72-.47z"/><path style="mix-blend-mode:normal;fill:#35ba97;fill-opacity:1;stroke:#e5e5e5;stroke-width:1.51181px;stroke-linecap:butt;stroke-linejoin:bevel;stroke-miterlimit:4;stroke-dasharray:none;stroke-opacity:1;paint-order:markers fill stroke" id="polygon254" transform="translate(10 46.016)" d="m385.412 452.01 8.269.578-2.944-13.969-6.72-.47z"/><path style="mix-blend-mode:normal;fill:#35ba97;fill-opacity:1;stroke:#e5e5e5;stroke-width:1.51181px;stroke-linecap:butt;stroke-linejoin:bevel;stroke-miterlimit:4;stroke-dasharray:none;stroke-opacity:1;paint-order:markers fill stroke" id="polygon256" transform="translate(10 46.016)" d="m387.85 414.79-1.853-6.894 6.72.47 1.084 2.23 2.317 4.774z"/><path style="mix-blend-mode:normal;fill:#35ba97;fill-opacity:1;stroke:#e5e5e5;stroke-width:1.51181px;stroke-linecap:butt;stroke-linejoin:bevel;stroke-miterlimit:4;stroke-dasharray:none;stroke-opacity:1;paint-order:markers fill stroke" id="polygon268" transform="translate(10 46.016)" d="M595.592 458.482h-8.333V341.989h8.333z"/><path style="mix-blend-mode:normal;fill:#35ba97;fill-opacity:1;stroke:#e5e5e5;stroke-width:1.51181px;stroke-linecap:butt;stroke-linejoin:bevel;stroke-miterlimit:4;stroke-dasharray:none;stroke-opacity:1;paint-order:markers fill stroke" id="polygon270" transform="translate(10 46.016)" d="m603.45 256.983-80.743 37.448 5.432-3.134-34.246 14.778-11.016 6.83-84.386 32.52z"/><path style="mix-blend-mode:normal;fill:#35ba97;fill-opacity:1;stroke:#e5e5e5;stroke-width:1.51181px;stroke-linecap:butt;stroke-linejoin:bevel;stroke-miterlimit:4;stroke-dasharray:none;stroke-opacity:1;paint-order:markers fill stroke" id="polygon276" transform="translate(10 46.016)" d="m486.218 319.594 10.98-5.918 34.245-14.778 72.008-32.137-201.584 86.985z"/><path style="mix-blend-mode:normal;fill:#35ba97;fill-opacity:1;stroke:#e5e5e5;stroke-width:1.51181px;stroke-linecap:butt;stroke-linejoin:bevel;stroke-miterlimit:4;stroke-dasharray:none;stroke-opacity:1;paint-order:markers fill stroke" id="polygon280" transform="translate(10 46.016)" d="m478.417 527.92.579-8.268 37.215 2.486-.579 8.268z"/><path style="mix-blend-mode:normal;fill:#35ba97;fill-opacity:1;stroke:#e5e5e5;stroke-width:1.51181px;stroke-linecap:butt;stroke-linejoin:bevel;stroke-miterlimit:4;stroke-dasharray:none;stroke-opacity:1;paint-order:markers fill stroke" id="polygon286" transform="translate(10 46.016)" d="m497.198 313.676-3.305-7.601 34.246-14.778 3.304 7.601z"/><path style="mix-blend-mode:normal;fill:#35ba97;fill-opacity:1;stroke:#e5e5e5;stroke-width:1.51181px;stroke-linecap:butt;stroke-linejoin:bevel;stroke-miterlimit:4;stroke-dasharray:none;stroke-opacity:1;paint-order:markers fill stroke" id="polygon288" transform="translate(10 46.016)" d="m410.98 484.603 5.82-5.902 26.457 26.29-5.819 5.902z"/><path style="mix-blend-mode:normal;fill:#35ba97;fill-opacity:1;stroke:#e5e5e5;stroke-width:1.51181px;stroke-linecap:butt;stroke-linejoin:bevel;stroke-miterlimit:4;stroke-dasharray:none;stroke-opacity:1;paint-order:markers fill stroke" id="polygon290" transform="translate(10 46.016)" d="m326.917 511.74-5.158-6.489 29.25-23.144 5.157 6.488z"/><path style="mix-blend-mode:normal;fill:#35ba97;fill-opacity:1;stroke:#e5e5e5;stroke-width:1.51181px;stroke-linecap:butt;stroke-linejoin:bevel;stroke-miterlimit:4;stroke-dasharray:none;stroke-opacity:1;paint-order:markers fill stroke" id="polygon294" transform="translate(10 46.016)" d="m387.85 414.79 8.268.58-2.437 37.218-8.269-.578z"/><path id="polygon220" style="fill:#35ba97;fill-opacity:1;stroke:#e5e5e5;stroke-width:1.51181px;stroke-linejoin:bevel;stroke-dasharray:none;stroke-opacity:1;paint-order:markers fill stroke" d="m395.056 460.53-1.5 22.918 2.262 24.017 7.131-108.913-4.314 7.311-2.807 42.875z"/><path style="mix-blend-mode:normal;fill:#35ba97;fill-opacity:1;stroke:#e5e5e5;stroke-width:1.51181px;stroke-linecap:butt;stroke-linejoin:bevel;stroke-miterlimit:4;stroke-dasharray:none;stroke-opacity:1;paint-order:markers fill stroke" id="polygon140" transform="translate(10 46.016)" d="m401.867 353.746-6.88 6.963 143.6-61.964 64.864-31.984-72.008 32.137-28.728 14.797-27.836 12.011 11.339-6.112z"/><path id="polygon124" style="mix-blend-mode:normal;fill:#35ba97;fill-opacity:1;stroke:#e5e5e5;stroke-width:1.51181px;stroke-linecap:butt;stroke-linejoin:bevel;stroke-miterlimit:4;stroke-dasharray:none;stroke-opacity:1;paint-order:markers fill stroke" d="m613.45 312.778-64.863 31.984v194.06l64.863 46.38zm-16.191 75.228V504.5l-34.963-13.452-5.85-2.252v-93.777z"/><path style="fill:#73e6c8;fill-opacity:1;stroke:#fff;stroke-width:3.77953px;stroke-linecap:butt;stroke-linejoin:miter;stroke-miterlimit:4;stroke-dasharray:3.77953 3.77953;stroke-dashoffset:0;stroke-opacity:1" d="m495.702 557.24 23.059 67.832" id="path1263-3-6-7-5-3-5-6-2"/><path id="polygon120" style="mix-blend-mode:normal;fill:#35ba97;fill-opacity:1;stroke:#e5e5e5;stroke-width:1.51181px;stroke-linecap:butt;stroke-linejoin:bevel;stroke-miterlimit:4;stroke-dasharray:none;stroke-opacity:1;paint-order:markers fill stroke" d="m448.557 532.141 24.473 43.68 140.42 9.38-64.863-46.378zm21.528 7.006 30.248 2.021 10.588 11.04 15.29 15.947-37.216-2.487z"/><path style="mix-blend-mode:normal;fill:#35ba97;fill-opacity:1;stroke:#e5e5e5;stroke-width:1.51181px;stroke-linecap:butt;stroke-linejoin:bevel;stroke-miterlimit:4;stroke-dasharray:none;stroke-opacity:1;paint-order:markers fill stroke" id="polygon82" transform="translate(10 46.016)" d="M275.29 605.722v-6.553l-31.862 68.656v8.587z"/><path id="polygon30" style="mix-blend-mode:normal;fill:#35ba97;fill-opacity:1;stroke:#e5e5e5;stroke-width:1.51181px;stroke-linecap:butt;stroke-linejoin:bevel;stroke-miterlimit:4;stroke-dasharray:none;stroke-opacity:1;paint-order:markers fill stroke" d="m227.32 639.874-64.864 87.181h330.336l-30.158-87.181zm57.97 5.312h117.896l4.729 68.656H253.429Z"/><path style="fill:#73e6c8;fill-opacity:1;stroke:#fff;stroke-width:3.77953px;stroke-linecap:butt;stroke-linejoin:miter;stroke-miterlimit:4;stroke-dasharray:3.77953 3.77953;stroke-dashoffset:0;stroke-opacity:1" d="m384.339 607.131-31.471-78.128" id="path1263-3-6"/><path id="polygon62" style="mix-blend-mode:normal;fill:#35ba97;fill-opacity:1;stroke:#e5e5e5;stroke-width:1.51181px;stroke-linecap:butt;stroke-linejoin:bevel;stroke-miterlimit:4;stroke-dasharray:none;stroke-opacity:1;paint-order:markers fill stroke" d="M393.555 483.448 227.32 614.99l-64.863 77.133 233.361-184.659Zm-27.503 25.181-5.043 19.495-29.25 23.144 10.517-23.826z"/><path id="polygon168" style="mix-blend-mode:normal;fill:#35ba97;fill-opacity:1;stroke:#e5e5e5;stroke-width:1.51181px;stroke-linecap:butt;stroke-linejoin:bevel;stroke-miterlimit:4;stroke-dasharray:none;stroke-opacity:1;paint-order:markers fill stroke" d="m399.938 483.83 4.842 24.174 68.25 67.817-24.473-43.68zm19.59 22.032 21.506 21.369 12.223 23.775-26.457-26.289z"/><path style="fill:#73e6c8;fill-opacity:1;stroke:#fff;stroke-width:3.77953px;stroke-linecap:butt;stroke-linejoin:miter;stroke-miterlimit:4;stroke-dasharray:3.77953 3.77953;stroke-dashoffset:0;stroke-opacity:1" d="m511.708 357.394-92.427-90.72" id="path1263-3-6-7-5-3-5-6-2-9-1-7-0-9"/><path style="fill:#73e6c8;fill-opacity:1;stroke:#fff;stroke-width:3.77953px;stroke-linecap:butt;stroke-linejoin:miter;stroke-miterlimit:4;stroke-dasharray:3.77953 3.77953;stroke-dashoffset:0;stroke-opacity:1" d="M419.281 266.674 227.32 226.439" id="path1263-3-6-7-5-3-5-6-2-9-1-7-0-9-3-6-0"/><path style="fill:#73e6c8;fill-opacity:1;stroke:#fff;stroke-width:3.77953px;stroke-linecap:butt;stroke-linejoin:miter;stroke-miterlimit:4;stroke-dasharray:3.77953 3.77953;stroke-dashoffset:0;stroke-opacity:1" d="m433.294 524.785-48.955 82.346" id="path1263-3-6-7-5-3-5-6-2-9-1-2"/><path id="polygon182" style="mix-blend-mode:normal;fill:#35ba97;fill-opacity:1;stroke:#e5e5e5;stroke-width:1.51181px;stroke-linecap:butt;stroke-linejoin:bevel;stroke-miterlimit:4;stroke-dasharray:none;stroke-opacity:1;paint-order:markers fill stroke" d="M153.477 111.905v624.129H622.43V111.905Zm8.979 8.976H613.45v182.117l-204.959 88.444-246.035-230.723Zm0 52.147L402.95 398.553l-7.133 108.912-233.361 184.658zm450.994 139.75v272.424l-140.42-9.381-68.25-67.817 7.086-108.242zM399.829 515.74l67.059 66.632 25.904 144.682H162.456v-23.482zm76.658 69.308 136.963 9.15v132.856H501.911Z"/><path style="fill:#73e6c8;fill-opacity:1;stroke:#fff;stroke-width:3.77953px;stroke-linecap:butt;stroke-linejoin:miter;stroke-miterlimit:4;stroke-dasharray:3.77953 3.77953;stroke-dashoffset:0;stroke-opacity:1" d="m198.43 429.44 89.853 1.394" id="path1263"/><path style="fill:#73e6c8;fill-opacity:1;stroke:#fff;stroke-width:3.77953px;stroke-linecap:butt;stroke-linejoin:miter;stroke-miterlimit:4;stroke-dasharray:3.77953 3.77953;stroke-dashoffset:0;stroke-opacity:1" d="m352.868 529.003-64.585-98.169" id="path1263-3"/><path style="fill:#73e6c8;fill-opacity:1;stroke:#fff;stroke-width:3.77953px;stroke-linecap:butt;stroke-linejoin:miter;stroke-miterlimit:4;stroke-dasharray:3.77953 3.77953;stroke-dashoffset:0;stroke-opacity:1" d="m327.66 683.464 56.679-76.333" id="path1263-3-6-7"/><path style="fill:#73e6c8;fill-opacity:1;stroke:#fff;stroke-width:3.77953px;stroke-linecap:butt;stroke-linejoin:miter;stroke-miterlimit:4;stroke-dasharray:3.77953 3.77953;stroke-dashoffset:0;stroke-opacity:1" d="m384.339 607.131 82.542 2.406" id="path1263-3-6-7-5"/><path style="fill:#73e6c8;fill-opacity:1;stroke:#fff;stroke-width:3.77953px;stroke-linecap:butt;stroke-linejoin:miter;stroke-miterlimit:4;stroke-dasharray:3.77953 3.77953;stroke-dashoffset:0;stroke-opacity:1" d="m518.76 625.072 7.672 51.429" id="path1263-3-6-7-5-3-5"/><path style="fill:#73e6c8;fill-opacity:1;stroke:#fff;stroke-width:3.77953px;stroke-linecap:butt;stroke-linejoin:miter;stroke-miterlimit:4;stroke-dasharray:3.77953 3.77953;stroke-dashoffset:0;stroke-opacity:1" d="m518.76 625.072 60.66-4.767" id="path1263-3-6-7-5-3-5-6"/><path style="fill:#73e6c8;fill-opacity:1;stroke:#fff;stroke-width:3.77953px;stroke-linecap:butt;stroke-linejoin:miter;stroke-miterlimit:4;stroke-dasharray:3.77953 3.77953;stroke-dashoffset:0;stroke-opacity:1" d="m504.158 467.678-8.456 89.562" id="path1263-3-6-7-5-3-5-6-2-9"/><path style="fill:#73e6c8;fill-opacity:1;stroke:#fff;stroke-width:3.77953px;stroke-linecap:butt;stroke-linejoin:miter;stroke-miterlimit:4;stroke-dasharray:3.77953 3.77953;stroke-dashoffset:0;stroke-opacity:1" d="m504.158 467.678-70.864 57.107" id="path1263-3-6-7-5-3-5-6-2-9-1"/><path style="fill:#73e6c8;fill-opacity:1;stroke:#fff;stroke-width:3.77953px;stroke-linecap:butt;stroke-linejoin:miter;stroke-miterlimit:4;stroke-dasharray:3.77953 3.77953;stroke-dashoffset:0;stroke-opacity:1" d="m581.018 448.969-76.86 18.71" id="path1263-3-6-7-5-3-5-6-2-9-1-7"/><path style="fill:#73e6c8;fill-opacity:1;stroke:#fff;stroke-width:3.77953px;stroke-linecap:butt;stroke-linejoin:miter;stroke-miterlimit:4;stroke-dasharray:3.77953 3.77953;stroke-dashoffset:0;stroke-opacity:1" d="m504.158 467.678 7.928-109.415" id="path1263-3-6-7-5-3-5-6-2-9-1-7-0"/><path style="fill:#73e6c8;fill-opacity:1;stroke:#fff;stroke-width:3.77953px;stroke-linecap:butt;stroke-linejoin:miter;stroke-miterlimit:4;stroke-dasharray:3.77953 3.77953;stroke-dashoffset:0;stroke-opacity:1" d="m419.281 266.674-31.328-102.2" id="path1263-3-6-7-5-3-5-6-2-9-1-7-0-9-3"/><path style="fill:#73e6c8;fill-opacity:1;stroke:#fff;stroke-width:3.77953px;stroke-linecap:butt;stroke-linejoin:miter;stroke-miterlimit:4;stroke-dasharray:3.77953 3.77953;stroke-dashoffset:0;stroke-opacity:1" d="m578.325 250.058-159.044 16.616" id="path1263-3-6-7-5-3-5-6-2-9-1-7-0-9-3-6"/></g></svg>