<svg width="850.81" height="764.554" viewBox="0 0 225.11 202.288" version="1.1" id="svg5" xmlns="http://www.w3.org/2000/svg"><g id="layer1" transform="translate(-6.86 -6.425)"><path id="circle346" style="fill:none;stroke:#fff;stroke-width:1.482px;stroke-linejoin:round;stroke-miterlimit:10;stroke-dasharray:none;stroke-opacity:1" d="M106.376 51.598c-25.733.024-54.433 18.535-63.42 41.485-.562 1.433-3.365 3.524-4.384 3.63-1.999.81-4.992.683-6.376.718H7.6v24.529h25.68c2.98.093 3.97-.052 6.275 1.164.552.27 2.728 1.976 3.246 3.503 8.226 24.251 37.855 41.142 63.575 41.165 15.198-.013 37.52-5.972 51.018-16.378 1.114-.858 2.433-1.8 3.284-2.262 1.451-.787 2.312-1.3 4.22-1.336 2.15-.049 2.836.023 4.773 1.7.963.832 1.986 1.64 3.062 2.422 13.874 10.082 36.534 15.842 51.475 15.854 2.377 0 4.719-.146 7.02-.423v-23.066c-2.268.458-4.616.7-7.02.7-19.5 0-48.155-15.808-48.155-35.308s28.655-35.308 48.155-35.308c2.404 0 4.752.242 7.02.7V52.021a58.671 58.671 0 0 0-7.02-.423c-15.505.013-39.323 6.216-53.009 17.015-2.582 2.038-5.07 2.906-6.846 2.723-1.762.066-3.5-.562-5.94-2.552-13.37-10.905-36.45-17.172-52.037-17.186Zm0 22.789c19.5 0 46.888 15.808 46.888 35.308s-27.387 35.309-46.888 35.309c-19.5 0-43.442-15.809-43.442-35.309s23.942-35.308 43.442-35.308z"/><path style="fill:#35b996;fill-opacity:1;stroke:#fff;stroke-width:.581999px;stroke-linejoin:round;stroke-miterlimit:10;stroke-dasharray:none;stroke-opacity:1" id="rect1112" transform="rotate(-27.873)" d="M32.755 84.841h9.894v28.723h-9.894z"/><path style="fill:#35b996;fill-opacity:1;stroke:#fff;stroke-width:.581999px;stroke-linejoin:round;stroke-miterlimit:10;stroke-dasharray:none;stroke-opacity:1" id="rect1112-3" transform="rotate(21.949)" d="M144.554-.221h9.894v28.723h-9.894z"/><path style="fill:#35b996;fill-opacity:1;stroke:#fff;stroke-width:.581999px;stroke-linejoin:round;stroke-miterlimit:10;stroke-dasharray:none;stroke-opacity:1" id="rect1112-6" transform="rotate(25.017)" d="M129.907 87.507h9.894v28.723h-9.894z"/><path style="fill:#35b996;fill-opacity:1;stroke:#fff;stroke-width:.581999px;stroke-linejoin:round;stroke-miterlimit:10;stroke-dasharray:none;stroke-opacity:1" id="rect1112-7" transform="rotate(-25.105)" d="M53.448 178.577h9.894V207.3h-9.894z"/><path style="fill:#35b996;fill-opacity:1;stroke:#fff;stroke-width:.581999px;stroke-linejoin:round;stroke-miterlimit:10;stroke-dasharray:none;stroke-opacity:1" id="rect1112-5" transform="rotate(90)" d="M102.992-178.494h9.894v28.723h-9.894z"/><path style="fill:#35b996;fill-opacity:1;stroke:#fff;stroke-width:.581999px;stroke-linejoin:round;stroke-miterlimit:10;stroke-dasharray:none;stroke-opacity:1" id="rect1112-35" transform="rotate(-16.627)" d="M172.277 107.686h9.894v28.723h-9.894z"/><path style="fill:#35b996;fill-opacity:1;stroke:#fff;stroke-width:.581999px;stroke-linejoin:round;stroke-miterlimit:10;stroke-dasharray:none;stroke-opacity:1" id="rect1112-62" transform="rotate(13.252)" d="M229.31 87.98h9.894v28.723h-9.894z"/><circle style="fill:#35b996;fill-opacity:1;stroke:#fff;stroke-width:.581999px;stroke-linejoin:round;stroke-miterlimit:10;stroke-dasharray:none;stroke-opacity:1" id="path1234" cx="106.549" cy="107.861" r="6.542"/><circle style="fill:#35b996;fill-opacity:1;stroke:#fff;stroke-width:.581999px;stroke-linejoin:round;stroke-miterlimit:10;stroke-dasharray:none;stroke-opacity:1" id="circle1250" cx="106.549" cy="13.258" r="6.542"/><circle style="fill:#35b996;fill-opacity:1;stroke:#fff;stroke-width:.581999px;stroke-linejoin:round;stroke-miterlimit:10;stroke-dasharray:none;stroke-opacity:1" id="circle1252" cx="106.549" cy="201.88" r="6.542"/><circle style="fill:#35b996;fill-opacity:1;stroke:#fff;stroke-width:.581999px;stroke-linejoin:round;stroke-miterlimit:10;stroke-dasharray:none;stroke-opacity:1" id="circle1254" cx="213.311" cy="107.861" r="6.542"/><path style="fill:none;stroke:#fff;stroke-width:.765px;stroke-linecap:butt;stroke-linejoin:miter;stroke-dasharray:none;stroke-opacity:1" d="M106.175 13.081c-64.9 26.182-15.717 75.787.035 95.176 15.942-18.704 63.02-66.695-.035-95.176z" id="path1321"/><path style="fill:none;stroke:#fff;stroke-width:.765px;stroke-linecap:butt;stroke-linejoin:miter;stroke-dasharray:none;stroke-opacity:1" d="M106.18 203.244c64.9-26.182 15.716-75.787-.035-95.176-15.942 18.704-63.02 66.695.035 95.176z" id="path1323"/><path style="fill:none;stroke:#fff;stroke-width:.765px;stroke-linecap:butt;stroke-linejoin:miter;stroke-dasharray:none;stroke-opacity:1" d="m106.1 108.12 107.211-.26c-6.122-84.813-51.125-99.696-107.136-94.779" id="path1325"/><path style="fill:none;stroke:#fff;stroke-width:.765px;stroke-linecap:butt;stroke-linejoin:miter;stroke-dasharray:none;stroke-opacity:1" d="M213.311 107.861c-7.403 50.249-10.13 103.547-107.13 95.383" id="path1327"/></g></svg>