<svg width="742.939" height="745.489" viewBox="0 0 557.204 559.117" version="1.1" id="svg962" xmlns:xlink="http://www.w3.org/1999/xlink" xmlns="http://www.w3.org/2000/svg"><defs id="defs6"><clipPath id="pb2995e710a-3"><path id="rect957-6" d="M47.003 26.88h505.594v505.594H47.003z"/></clipPath><style id="style4">*{stroke-linejoin:round;stroke-linecap:butt}</style></defs><g id="figure_1" transform="translate(-5.997 -2.375)"><rect style="fill:#0d585f;fill-opacity:1;stroke:none;stroke-width:.808002px;stroke-linecap:round;stroke-linejoin:round;stroke-miterlimit:10;stroke-opacity:.133333" id="rect1" width="102.123" height="101.918" x="5.997" y="2.375" ry="0"/><rect style="fill:#bdd6ca;fill-opacity:1;stroke:none;stroke-width:.808002px;stroke-linecap:round;stroke-linejoin:round;stroke-miterlimit:10;stroke-opacity:.133333" id="rect1-3" width="102.123" height="101.918" x="107.11" y="2.375" ry="0"/><rect style="fill:#e0efdf;fill-opacity:1;stroke:none;stroke-width:.808002px;stroke-linecap:round;stroke-linejoin:round;stroke-miterlimit:10;stroke-opacity:.133333" id="rect1-3-5" width="102.123" height="101.918" x="208.222" y="2.375" ry="0"/><rect style="fill:#e1f0e0;fill-opacity:1;stroke:none;stroke-width:.808002px;stroke-linecap:round;stroke-linejoin:round;stroke-miterlimit:10;stroke-opacity:.133333" id="rect1-3-5-6" width="102.123" height="101.918" x="309.334" y="2.375" ry="0"/><rect style="fill:#e1f0e0;fill-opacity:1;stroke:none;stroke-width:.808002px;stroke-linecap:round;stroke-linejoin:round;stroke-miterlimit:10;stroke-opacity:.133333" id="rect1-3-5-6-2" width="102.123" height="101.918" x="410.447" y="2.375" ry="0"/><rect style="fill:#d2e5d7;fill-opacity:1;stroke:none;stroke-width:.808002px;stroke-linecap:round;stroke-linejoin:round;stroke-miterlimit:10;stroke-opacity:.133333" id="rect1-6" width="102.123" height="101.918" x="5.997" y="204.193" ry="0"/><rect style="fill:#a6c6bc;fill-opacity:1;stroke:none;stroke-width:.808002px;stroke-linecap:round;stroke-linejoin:round;stroke-miterlimit:10;stroke-opacity:.133333" id="rect1-3-1" width="102.123" height="101.918" x="107.11" y="204.193" ry="0"/><rect style="fill:#4f8787;fill-opacity:1;stroke:none;stroke-width:.808002px;stroke-linecap:round;stroke-linejoin:round;stroke-miterlimit:10;stroke-opacity:.133333" id="rect1-3-5-29" width="102.123" height="101.918" x="208.222" y="204.193" ry="0"/><rect style="fill:#b1cec3;fill-opacity:1;stroke:none;stroke-width:.808002px;stroke-linecap:round;stroke-linejoin:round;stroke-miterlimit:10;stroke-opacity:.133333" id="rect1-3-5-6-3" width="102.123" height="101.918" x="309.334" y="204.193" ry="0"/><rect style="fill:#dceddd;fill-opacity:1;stroke:none;stroke-width:.808002px;stroke-linecap:round;stroke-linejoin:round;stroke-miterlimit:10;stroke-opacity:.133333" id="rect1-3-5-6-2-1" width="102.123" height="101.918" x="410.447" y="204.193" ry="0"/><rect style="fill:#b9d3c7;fill-opacity:1;stroke:none;stroke-width:.808002px;stroke-linecap:round;stroke-linejoin:round;stroke-miterlimit:10;stroke-opacity:.133333" id="rect1-5" width="102.123" height="101.918" x="5.997" y="103.284" ry="0"/><rect style="fill:#2e6f73;fill-opacity:1;stroke:none;stroke-width:.808002px;stroke-linecap:round;stroke-linejoin:round;stroke-miterlimit:10;stroke-opacity:.133333" id="rect1-3-9" width="102.123" height="101.918" x="107.11" y="103.284" ry="0"/><rect style="fill:#aac8be;fill-opacity:1;stroke:none;stroke-width:.808002px;stroke-linecap:round;stroke-linejoin:round;stroke-miterlimit:10;stroke-opacity:.133333" id="rect1-3-5-2" width="102.123" height="101.918" x="208.222" y="103.284" ry="0"/><rect style="fill:#d7e9da;fill-opacity:1;stroke:none;stroke-width:.808002px;stroke-linecap:round;stroke-linejoin:round;stroke-miterlimit:10;stroke-opacity:.133333" id="rect1-3-5-6-28" width="102.123" height="101.918" x="309.334" y="103.284" ry="0"/><rect style="fill:#e0efdf;fill-opacity:1;stroke:none;stroke-width:.808002px;stroke-linecap:round;stroke-linejoin:round;stroke-miterlimit:10;stroke-opacity:.133333" id="rect1-3-5-6-2-9" width="102.123" height="101.918" x="410.447" y="103.284" ry="0"/><rect style="fill:#e1f0e0;fill-opacity:1;stroke:none;stroke-width:.808002px;stroke-linecap:round;stroke-linejoin:round;stroke-miterlimit:10;stroke-opacity:.133333" id="rect1-6-7" width="102.123" height="101.918" x="5.997" y="406.01" ry="0"/><rect style="fill:#dfeede;fill-opacity:1;stroke:none;stroke-width:.808002px;stroke-linecap:round;stroke-linejoin:round;stroke-miterlimit:10;stroke-opacity:.133333" id="rect1-3-1-8" width="102.123" height="101.918" x="107.11" y="406.01" ry="0"/><rect style="fill:#dceddd;fill-opacity:1;stroke:none;stroke-width:.808002px;stroke-linecap:round;stroke-linejoin:round;stroke-miterlimit:10;stroke-opacity:.133333" id="rect1-3-5-29-4" width="102.123" height="101.918" x="208.222" y="406.01" ry="0"/><rect style="fill:#bdd6ca;fill-opacity:1;stroke:none;stroke-width:.808002px;stroke-linecap:round;stroke-linejoin:round;stroke-miterlimit:10;stroke-opacity:.133333" id="rect1-3-5-6-3-5" width="102.123" height="101.918" x="309.334" y="406.01" ry="0"/><rect style="fill:#0f5960;fill-opacity:1;stroke:none;stroke-width:.808002px;stroke-linecap:round;stroke-linejoin:round;stroke-miterlimit:10;stroke-opacity:.133333" id="rect1-3-5-6-2-1-0" width="102.123" height="101.918" x="410.447" y="406.01" ry="0"/><rect style="fill:#dbebdc;fill-opacity:1;stroke:none;stroke-width:.808002px;stroke-linecap:round;stroke-linejoin:round;stroke-miterlimit:10;stroke-opacity:.133333" id="rect1-5-1" width="102.123" height="101.918" x="5.997" y="305.101" ry="0"/><rect style="fill:#d3e6d7;fill-opacity:1;stroke:none;stroke-width:.808002px;stroke-linecap:round;stroke-linejoin:round;stroke-miterlimit:10;stroke-opacity:.133333" id="rect1-3-9-0" width="102.123" height="101.918" x="107.11" y="305.101" ry="0"/><rect style="fill:#aecbc1;fill-opacity:1;stroke:none;stroke-width:.808002px;stroke-linecap:round;stroke-linejoin:round;stroke-miterlimit:10;stroke-opacity:.133333" id="rect1-3-5-2-6" width="102.123" height="101.918" x="208.222" y="305.101" ry="0"/><rect style="fill:#488283;fill-opacity:1;stroke:none;stroke-width:.808002px;stroke-linecap:round;stroke-linejoin:round;stroke-miterlimit:10;stroke-opacity:.133333" id="rect1-3-5-6-28-3" width="102.123" height="101.918" x="309.334" y="305.101" ry="0"/><rect style="fill:#c1d9cc;fill-opacity:1;stroke:none;stroke-width:.808002px;stroke-linecap:round;stroke-linejoin:round;stroke-miterlimit:10;stroke-opacity:.133333" id="rect1-3-5-6-2-9-2" width="102.123" height="101.918" x="410.447" y="305.101" ry="0"/><g id="text_1" transform="rotate(45 447.333 565.803) scale(1.5)" style="fill:#e5e5e5;fill-opacity:1"><g transform="scale(.1 -.1) rotate(45 7123.372 -1558.497)" id="g30" style="fill:#e5e5e5;fill-opacity:1"><defs id="defs26"><path id="DejaVuSans-30" d="M2034 4250q-487 0-733-480-245-479-245-1442 0-959 245-1439 246-480 733-480 491 0 736 480 246 480 246 1439 0 963-246 1442-245 480-736 480zm0 500q785 0 1199-621 414-620 414-1801 0-1178-414-1799Q2819-91 2034-91q-784 0-1198 620-414 621-414 1799 0 1181 414 1801 414 621 1198 621z" transform="scale(.01563)"/></defs><use xlink:href="#DejaVuSans-30" id="use28" style="fill:#e5e5e5;fill-opacity:1"/></g></g><g id="text_2" transform="rotate(45 573.89 505.171) scale(1.5)" style="fill:#e5e5e5;fill-opacity:1"><g transform="scale(.1 -.1) rotate(45 7628.966 -337.885)" id="g44" style="fill:#e5e5e5;fill-opacity:1"><defs id="defs40"><path id="DejaVuSans-31" d="M794 531h1031v3560L703 3866v575l1116 225h631V531h1031V0H794Z" transform="scale(.01563)"/></defs><use xlink:href="#DejaVuSans-31" id="use42" style="fill:#e5e5e5;fill-opacity:1"/></g></g><g id="text_3" transform="rotate(45 700.165 444.33) scale(1.5)" style="fill:#e5e5e5;fill-opacity:1"><g transform="scale(.1 -.1) rotate(45 8134.56 882.726)" id="g58" style="fill:#e5e5e5;fill-opacity:1"><defs id="defs54"><path id="DejaVuSans-32" d="M1228 531h2203V0H469v531q359 372 979 998 621 627 780 809 303 340 423 576 121 236 121 464 0 372-261 606-261 235-680 235-297 0-627-103-329-103-704-313v638q381 153 712 231 332 78 607 78 725 0 1156-363 431-362 431-968 0-288-108-546-107-257-392-607-78-91-497-524-418-433-1181-1211Z" transform="scale(.01563)"/></defs><use xlink:href="#DejaVuSans-32" id="use56" style="fill:#e5e5e5;fill-opacity:1"/></g></g><g id="text_4" transform="rotate(45 826.244 383.07) scale(1.5)" style="fill:#e5e5e5;fill-opacity:1"><g transform="scale(.1 -.1) rotate(45 8640.154 2103.338)" id="g72" style="fill:#e5e5e5;fill-opacity:1"><defs id="defs68"><path id="DejaVuSans-33" d="M2597 2516q453-97 707-404 255-306 255-756 0-690-475-1069Q2609-91 1734-91q-293 0-604 58T488 141v609q262-153 574-231 313-78 654-78 593 0 904 234t311 681q0 413-289 645-289 233-804 233h-544v519h569q465 0 712 186t247 536q0 359-255 551-254 193-729 193-260 0-557-57-297-56-653-174v562q360 100 674 150t592 50q719 0 1137-327 419-326 419-882 0-388-222-655t-631-370z" transform="scale(.01563)"/></defs><use xlink:href="#DejaVuSans-33" id="use70" style="fill:#e5e5e5;fill-opacity:1"/></g></g><g id="text_5" transform="rotate(45 953.609 321.482) scale(1.5)" style="fill:#e5e5e5;fill-opacity:1"><g transform="scale(.1 -.1) rotate(45 9145.748 3323.95)" id="g86" style="fill:#e5e5e5;fill-opacity:1"><defs id="defs82"><path id="DejaVuSans-34" d="M2419 4116 825 1625h1594zm-166 550h794V1625h666v-525h-666V0h-628v1100H313v609z" transform="scale(.01563)"/></defs><use xlink:href="#DejaVuSans-34" id="use84" style="fill:#e5e5e5;fill-opacity:1"/></g></g><g transform="matrix(.15 0 0 -.15 203.561 561.279)" id="g133" style="fill:#e5e5e5;fill-opacity:1"><defs id="defs101"><path id="DejaVuSans-50" d="M1259 4147V2394h794q441 0 681 228 241 228 241 650 0 419-241 647-240 228-681 228zm-631 519h1425q785 0 1186-355 402-355 402-1039 0-691-402-1044-401-353-1186-353h-794V0H628Z" transform="scale(.01563)"/><path id="DejaVuSans-72" d="M2631 2963q-97 56-211 82-114 27-251 27-488 0-749-317t-261-911V0H581v3500h578v-544q182 319 472 473 291 155 707 155 59 0 131-8 72-7 159-23z" transform="scale(.01563)"/><path id="DejaVuSans-65" d="M3597 1894v-281H953q38-594 358-905t892-311q331 0 642 81t618 244V178Q3153 47 2828-22t-659-69q-838 0-1327 487-489 488-489 1320 0 859 464 1363 464 505 1252 505 706 0 1117-455 411-454 411-1235zm-575 169q-6 471-264 752-258 282-683 282-481 0-770-272t-333-766z" transform="scale(.01563)"/><path id="DejaVuSans-64" d="M2906 2969v1894h575V0h-575v525q-181-312-458-464-276-152-664-152-634 0-1033 506-398 507-398 1332t398 1331q399 506 1033 506 388 0 664-152 277-151 458-463zM947 1747q0-634 261-995t717-361q456 0 718 361 263 361 263 995t-263 995q-262 361-718 361t-717-361q-261-361-261-995z" transform="scale(.01563)"/><path id="DejaVuSans-69" d="M603 3500h575V0H603Zm0 1363h575v-729H603Z" transform="scale(.01563)"/><path id="DejaVuSans-63" d="M3122 3366v-538q-244 135-489 202t-495 67q-560 0-870-355-309-354-309-995t309-996q310-354 870-354 250 0 495 67t489 202V134Q2881 22 2623-34q-257-57-548-57-791 0-1257 497-465 497-465 1341 0 856 470 1346 471 491 1290 491 265 0 518-55 253-54 491-163z" transform="scale(.01563)"/><path id="DejaVuSans-74" d="M1172 4494v-994h1184v-447H1172V1153q0-428 117-550t477-122h590V0h-590q-666 0-919 248-253 249-253 905v1900H172v447h422v994z" transform="scale(.01563)"/><path id="DejaVuSans-6c" d="M603 4863h575V0H603Z" transform="scale(.01563)"/><path id="DejaVuSans-61" d="M2194 1759q-697 0-966-159t-269-544q0-306 202-486 202-179 548-179 479 0 768 339t289 901v128zm1147 238V0h-575v531q-197-318-491-470T1556-91q-537 0-855 302-317 302-317 808 0 590 395 890 396 300 1180 300h807v57q0 397-261 614t-733 217q-300 0-585-72-284-72-546-216v532q315 122 612 182 297 61 578 61 760 0 1135-394 375-393 375-1193z" transform="scale(.01563)"/><path id="DejaVuSans-62" d="M3116 1747q0 634-261 995t-717 361q-457 0-718-361t-261-995q0-634 261-995t718-361q456 0 717 361t261 995zM1159 2969q182 312 458 463 277 152 661 152 638 0 1036-506 399-506 399-1331T3314 415Q2916-91 2278-91q-384 0-661 152-276 152-458 464V0H581v4863h578z" transform="scale(.01563)"/></defs><use xlink:href="#DejaVuSans-50" id="use103" style="fill:#e5e5e5;fill-opacity:1"/><use xlink:href="#DejaVuSans-72" x="58.553" id="use105" style="fill:#e5e5e5;fill-opacity:1"/><use xlink:href="#DejaVuSans-65" x="97.416" id="use107" style="fill:#e5e5e5;fill-opacity:1"/><use xlink:href="#DejaVuSans-64" x="158.939" id="use109" style="fill:#e5e5e5;fill-opacity:1"/><use xlink:href="#DejaVuSans-69" x="222.416" id="use111" style="fill:#e5e5e5;fill-opacity:1"/><use xlink:href="#DejaVuSans-63" x="250.199" id="use113" style="fill:#e5e5e5;fill-opacity:1"/><use xlink:href="#DejaVuSans-74" x="305.18" id="use115" style="fill:#e5e5e5;fill-opacity:1"/><use xlink:href="#DejaVuSans-65" x="344.389" id="use117" style="fill:#e5e5e5;fill-opacity:1"/><use xlink:href="#DejaVuSans-64" x="405.912" id="use119" style="fill:#e5e5e5;fill-opacity:1"/><use xlink:href="#DejaVuSans-20" x="469.389" id="use121" style="fill:#e5e5e5;fill-opacity:1"/><use xlink:href="#DejaVuSans-6c" x="501.176" id="use123" style="fill:#e5e5e5;fill-opacity:1"/><use xlink:href="#DejaVuSans-61" x="528.959" id="use125" style="fill:#e5e5e5;fill-opacity:1"/><use xlink:href="#DejaVuSans-62" x="590.238" id="use127" style="fill:#e5e5e5;fill-opacity:1"/><use xlink:href="#DejaVuSans-65" x="653.715" id="use129" style="fill:#e5e5e5;fill-opacity:1"/><use xlink:href="#DejaVuSans-6c" x="715.238" id="use131" style="fill:#e5e5e5;fill-opacity:1"/></g><g id="text_7" transform="matrix(0 1.5 -1.5 0 653.097 -6.62)" style="fill:#e5e5e5;fill-opacity:1"><g transform="matrix(0 -.1 -.1 0 43.802 83.802)" id="g147" style="fill:#e5e5e5;fill-opacity:1"><use xlink:href="#DejaVuSans-30" id="use145" style="fill:#e5e5e5;fill-opacity:1"/></g></g><g id="text_8" transform="matrix(0 1.5 -1.5 0 804.635 94.417)" style="fill:#e5e5e5;fill-opacity:1"><g transform="matrix(0 -.1 -.1 0 43.802 184.92)" id="g158" style="fill:#e5e5e5;fill-opacity:1"><use xlink:href="#DejaVuSans-31" id="use156" style="fill:#e5e5e5;fill-opacity:1"/></g></g><g id="text_9" transform="matrix(0 1.5 -1.5 0 956.58 195.856)" style="fill:#e5e5e5;fill-opacity:1"><g transform="matrix(0 -.1 -.1 0 43.802 286.04)" id="g169" style="fill:#e5e5e5;fill-opacity:1"><use xlink:href="#DejaVuSans-32" id="use167" style="fill:#e5e5e5;fill-opacity:1"/></g></g><g id="text_10" transform="rotate(90 405.702 702.455) scale(1.5)" style="fill:#e5e5e5;fill-opacity:1"><g transform="matrix(0 -.1 -.1 0 43.802 387.158)" id="g180" style="fill:#e5e5e5;fill-opacity:1"><use xlink:href="#DejaVuSans-33" id="use178" style="fill:#e5e5e5;fill-opacity:1"/></g></g><g id="text_11" transform="rotate(90 430.98 828.875) scale(1.5)" style="fill:#e5e5e5;fill-opacity:1"><g transform="matrix(0 -.1 -.1 0 43.802 488.277)" id="g191" style="fill:#e5e5e5;fill-opacity:1"><use xlink:href="#DejaVuSans-34" id="use189" style="fill:#e5e5e5;fill-opacity:1"/></g></g><g id="text_12" transform="matrix(1.5 0 0 1.5 517.802 -164.08)" style="fill:#e5e5e5;fill-opacity:1"><g transform="matrix(0 -.1 -.1 0 30.124 303.976)" id="g219" style="fill:#e5e5e5;fill-opacity:1"><defs id="defs197"><path id="DejaVuSans-54" d="M-19 4666h3947v-532H2272V0h-634v4134H-19Z" transform="scale(.01563)"/><path id="DejaVuSans-75" d="M544 1381v2119h575V1403q0-497 193-746 194-248 582-248 465 0 735 297 271 297 271 810v1984h575V0h-575v538q-209-319-486-474-276-155-642-155-603 0-916 375-312 375-312 1097Zm1447 2203z" transform="scale(.01563)"/></defs><use xlink:href="#DejaVuSans-54" id="use199" style="fill:#e5e5e5;fill-opacity:1"/><use xlink:href="#DejaVuSans-72" x="46.334" id="use201" style="fill:#e5e5e5;fill-opacity:1"/><use xlink:href="#DejaVuSans-75" x="87.447" id="use203" style="fill:#e5e5e5;fill-opacity:1"/><use xlink:href="#DejaVuSans-65" x="150.826" id="use205" style="fill:#e5e5e5;fill-opacity:1"/><use xlink:href="#DejaVuSans-20" x="212.35" id="use207" style="fill:#e5e5e5;fill-opacity:1"/><use xlink:href="#DejaVuSans-6c" x="244.137" id="use209" style="fill:#e5e5e5;fill-opacity:1"/><use xlink:href="#DejaVuSans-61" x="271.92" id="use211" style="fill:#e5e5e5;fill-opacity:1"/><use xlink:href="#DejaVuSans-62" x="333.199" id="use213" style="fill:#e5e5e5;fill-opacity:1"/><use xlink:href="#DejaVuSans-65" x="396.676" id="use215" style="fill:#e5e5e5;fill-opacity:1"/><use xlink:href="#DejaVuSans-6c" x="458.199" id="use217" style="fill:#e5e5e5;fill-opacity:1"/></g></g><g id="text_13" transform="matrix(1.5 0 0 1.5 -89.345 -62.28)"><g style="fill:#fff" transform="matrix(.1 0 0 -.1 80.067 74.6)" id="g251"><defs id="defs237"><path id="DejaVuSans-39" d="M703 97v575q238-113 481-172 244-59 479-59 625 0 954 420 330 420 377 1277-181-269-460-413-278-144-615-144-700 0-1108 423-408 424-408 1159 0 718 425 1152 425 435 1131 435 810 0 1236-621 427-620 427-1801 0-1103-524-1761Q2575-91 1691-91q-238 0-482 47Q966 3 703 97Zm1256 1978q425 0 673 290 249 291 249 798 0 503-249 795-248 292-673 292t-673-292q-248-292-248-795 0-507 248-798 248-290 673-290z" transform="scale(.01563)"/><path id="DejaVuSans-2e" d="M684 794h660V0H684Z" transform="scale(.01563)"/></defs><use xlink:href="#DejaVuSans-33" id="use239"/><use xlink:href="#DejaVuSans-30" x="63.623" id="use241"/><use xlink:href="#DejaVuSans-39" x="127.246" id="use243"/><use xlink:href="#DejaVuSans-2e" x="190.869" id="use245"/><use xlink:href="#DejaVuSans-30" x="222.656" id="use247"/><use xlink:href="#DejaVuSans-30" x="286.279" id="use249"/></g><g style="fill:#fff" transform="matrix(.1 0 0 -.1 79.059 85.798)" id="g269"><defs id="defs255"><path id="DejaVuSans-b1" d="M2944 4013V2803h1740v-531H2944V1063h-525v1209H678v531h1741v1210ZM678 531h4006V0H678Z" transform="scale(.01563)"/><path id="DejaVuSans-38" d="M2034 2216q-450 0-708-241-257-241-257-662 0-422 257-663 258-241 708-241t709 242q260 243 260 662 0 421-258 662-257 241-711 241zm-631 268q-406 100-633 378-226 279-226 679 0 559 398 884 399 325 1092 325 697 0 1094-325t397-884q0-400-227-679-226-278-629-378 456-106 710-416 255-309 255-755 0-679-414-1042Q2806-91 2034-91q-771 0-1186 362-414 363-414 1042 0 446 256 755 257 310 713 416zm-231 997q0-362 226-565 227-203 636-203 407 0 636 203 230 203 230 565 0 363-230 566-229 203-636 203-409 0-636-203-226-203-226-566z" transform="scale(.01563)"/></defs><use xlink:href="#DejaVuSans-b1" id="use257"/><use xlink:href="#DejaVuSans-31" x="83.789" id="use259"/><use xlink:href="#DejaVuSans-38" x="147.412" id="use261"/><use xlink:href="#DejaVuSans-2e" x="211.035" id="use263"/><use xlink:href="#DejaVuSans-33" x="242.822" id="use265"/><use xlink:href="#DejaVuSans-33" x="306.445" id="use267"/></g></g><g id="text_14" transform="matrix(1.5 0 0 1.5 -139.905 -62.28)"><g transform="matrix(.1 0 0 -.1 184.367 74.6)" id="g286"><defs id="defs274"><path id="DejaVuSans-35" d="M691 4666h2478v-532H1269V2991q137 47 274 70 138 23 276 23 781 0 1237-428 457-428 457-1159 0-753-469-1171Q2575-91 1722-91q-294 0-599 50Q819 9 494 109v635q281-153 581-228t634-75q541 0 856 284 316 284 316 772 0 487-316 771-315 285-856 285-253 0-505-56-251-56-513-175z" transform="scale(.01563)"/><path id="DejaVuSans-37" d="M525 4666h3000v-269L1831 0h-659l1594 4134H525Z" transform="scale(.01563)"/></defs><use xlink:href="#DejaVuSans-35" id="use276"/><use xlink:href="#DejaVuSans-32" x="63.623" id="use278"/><use xlink:href="#DejaVuSans-2e" x="127.246" id="use280"/><use xlink:href="#DejaVuSans-37" x="159.033" id="use282"/><use xlink:href="#DejaVuSans-35" x="222.656" id="use284"/></g><g transform="matrix(.1 0 0 -.1 180.177 85.798)" id="g300"><use xlink:href="#DejaVuSans-b1" id="use288"/><use xlink:href="#DejaVuSans-31" x="83.789" id="use290"/><use xlink:href="#DejaVuSans-33" x="147.412" id="use292"/><use xlink:href="#DejaVuSans-2e" x="211.035" id="use294"/><use xlink:href="#DejaVuSans-38" x="242.822" id="use296"/><use xlink:href="#DejaVuSans-33" x="306.445" id="use298"/></g></g><g id="text_15" transform="matrix(1.5 0 0 1.5 -190.451 -62.28)"><g transform="matrix(.1 0 0 -.1 288.667 74.6)" id="g314"><defs id="defs304"><path id="DejaVuSans-36" d="M2113 2584q-425 0-674-291-248-290-248-796 0-503 248-796 249-292 674-292t673 292q248 293 248 796 0 506-248 796-248 291-673 291zm1253 1979v-575q-238 112-480 171-242 60-480 60-625 0-955-422-329-422-376-1275 184 272 462 417 279 145 613 145 703 0 1111-427 408-426 408-1160 0-719-425-1154Q2819-91 2113-91q-810 0-1238 620-428 621-428 1799 0 1106 525 1764t1409 658q238 0 480-47t505-140z" transform="scale(.01563)"/></defs><use xlink:href="#DejaVuSans-32" id="use306"/><use xlink:href="#DejaVuSans-2e" x="63.623" id="use308"/><use xlink:href="#DejaVuSans-36" x="95.41" id="use310"/><use xlink:href="#DejaVuSans-32" x="159.033" id="use312"/></g><g transform="matrix(.1 0 0 -.1 284.477 85.798)" id="g326"><use xlink:href="#DejaVuSans-b1" id="use316"/><use xlink:href="#DejaVuSans-33" x="83.789" id="use318"/><use xlink:href="#DejaVuSans-2e" x="147.412" id="use320"/><use xlink:href="#DejaVuSans-37" x="179.199" id="use322"/><use xlink:href="#DejaVuSans-37" x="242.822" id="use324"/></g></g><g id="text_16" transform="matrix(1.5 0 0 1.5 -241.01 -62.244)"><g transform="matrix(.1 0 0 -.1 389.786 74.6)" id="g337"><use xlink:href="#DejaVuSans-31" id="use329"/><use xlink:href="#DejaVuSans-2e" x="63.623" id="use331"/><use xlink:href="#DejaVuSans-31" x="95.41" id="use333"/><use xlink:href="#DejaVuSans-32" x="159.033" id="use335"/></g><g transform="matrix(.1 0 0 -.1 385.596 85.798)" id="g349"><use xlink:href="#DejaVuSans-b1" id="use339"/><use xlink:href="#DejaVuSans-31" x="83.789" id="use341"/><use xlink:href="#DejaVuSans-2e" x="147.412" id="use343"/><use xlink:href="#DejaVuSans-32" x="179.199" id="use345"/><use xlink:href="#DejaVuSans-37" x="242.822" id="use347"/></g></g><g id="text_17" transform="matrix(1.5 0 0 1.5 -291.617 -62.28)"><g transform="matrix(.1 0 0 -.1 490.905 74.6)" id="g360"><use xlink:href="#DejaVuSans-30" id="use352"/><use xlink:href="#DejaVuSans-2e" x="63.623" id="use354"/><use xlink:href="#DejaVuSans-35" x="95.41" id="use356"/><use xlink:href="#DejaVuSans-30" x="159.033" id="use358"/></g><g transform="matrix(.1 0 0 -.1 486.715 85.798)" id="g372"><use xlink:href="#DejaVuSans-b1" id="use362"/><use xlink:href="#DejaVuSans-31" x="83.789" id="use364"/><use xlink:href="#DejaVuSans-2e" x="147.412" id="use366"/><use xlink:href="#DejaVuSans-30" x="179.199" id="use368"/><use xlink:href="#DejaVuSans-30" x="242.822" id="use370"/></g></g><g id="text_18" transform="matrix(1.5 0 0 1.5 -89.315 -112.839)"><g transform="matrix(.1 0 0 -.1 83.248 175.719)" id="g385"><use xlink:href="#DejaVuSans-35" id="use375"/><use xlink:href="#DejaVuSans-39" x="63.623" id="use377"/><use xlink:href="#DejaVuSans-2e" x="127.246" id="use379"/><use xlink:href="#DejaVuSans-33" x="159.033" id="use381"/><use xlink:href="#DejaVuSans-38" x="222.656" id="use383"/></g><g transform="matrix(.1 0 0 -.1 79.059 186.916)" id="g399"><use xlink:href="#DejaVuSans-b1" id="use387"/><use xlink:href="#DejaVuSans-34" x="83.789" id="use389"/><use xlink:href="#DejaVuSans-35" x="147.412" id="use391"/><use xlink:href="#DejaVuSans-2e" x="211.035" id="use393"/><use xlink:href="#DejaVuSans-30" x="242.822" id="use395"/><use xlink:href="#DejaVuSans-31" x="306.445" id="use397"/></g></g><g id="text_19" transform="matrix(1.5 0 0 1.5 -139.855 -112.839)"><g style="fill:#fff" transform="matrix(.1 0 0 -.1 181.186 175.719)" id="g414"><use xlink:href="#DejaVuSans-32" id="use402"/><use xlink:href="#DejaVuSans-35" x="63.623" id="use404"/><use xlink:href="#DejaVuSans-39" x="127.246" id="use406"/><use xlink:href="#DejaVuSans-2e" x="190.869" id="use408"/><use xlink:href="#DejaVuSans-37" x="222.656" id="use410"/><use xlink:href="#DejaVuSans-35" x="286.279" id="use412"/></g><g style="fill:#fff" transform="matrix(.1 0 0 -.1 180.177 186.916)" id="g428"><use xlink:href="#DejaVuSans-b1" id="use416"/><use xlink:href="#DejaVuSans-36" x="83.789" id="use418"/><use xlink:href="#DejaVuSans-32" x="147.412" id="use420"/><use xlink:href="#DejaVuSans-2e" x="211.035" id="use422"/><use xlink:href="#DejaVuSans-31" x="242.822" id="use424"/><use xlink:href="#DejaVuSans-32" x="306.445" id="use426"/></g></g><g id="text_20" transform="matrix(1.5 0 0 1.5 -190.494 -112.839)"><g transform="matrix(.1 0 0 -.1 285.486 175.719)" id="g441"><use xlink:href="#DejaVuSans-38" id="use431"/><use xlink:href="#DejaVuSans-30" x="63.623" id="use433"/><use xlink:href="#DejaVuSans-2e" x="127.246" id="use435"/><use xlink:href="#DejaVuSans-32" x="159.033" id="use437"/><use xlink:href="#DejaVuSans-35" x="222.656" id="use439"/></g><g transform="matrix(.1 0 0 -.1 281.296 186.916)" id="g455"><use xlink:href="#DejaVuSans-b1" id="use443"/><use xlink:href="#DejaVuSans-31" x="83.789" id="use445"/><use xlink:href="#DejaVuSans-36" x="147.412" id="use447"/><use xlink:href="#DejaVuSans-2e" x="211.035" id="use449"/><use xlink:href="#DejaVuSans-31" x="242.822" id="use451"/><use xlink:href="#DejaVuSans-38" x="306.445" id="use453"/></g></g><g id="text_21" transform="matrix(1.5 0 0 1.5 -241.058 -112.839)"><g transform="matrix(.1 0 0 -.1 386.605 175.719)" id="g468"><use xlink:href="#DejaVuSans-31" id="use458"/><use xlink:href="#DejaVuSans-34" x="63.623" id="use460"/><use xlink:href="#DejaVuSans-2e" x="127.246" id="use462"/><use xlink:href="#DejaVuSans-38" x="159.033" id="use464"/><use xlink:href="#DejaVuSans-38" x="222.656" id="use466"/></g><g transform="matrix(.1 0 0 -.1 382.415 186.916)" id="g482"><use xlink:href="#DejaVuSans-b1" id="use470"/><use xlink:href="#DejaVuSans-31" x="83.789" id="use472"/><use xlink:href="#DejaVuSans-36" x="147.412" id="use474"/><use xlink:href="#DejaVuSans-2e" x="211.035" id="use476"/><use xlink:href="#DejaVuSans-35" x="242.822" id="use478"/><use xlink:href="#DejaVuSans-30" x="306.445" id="use480"/></g></g><g id="text_22" transform="matrix(1.5 0 0 1.5 -291.533 -112.839)"><g transform="matrix(.1 0 0 -.1 490.905 175.719)" id="g493"><use xlink:href="#DejaVuSans-32" id="use485"/><use xlink:href="#DejaVuSans-2e" x="63.623" id="use487"/><use xlink:href="#DejaVuSans-37" x="95.41" id="use489"/><use xlink:href="#DejaVuSans-35" x="159.033" id="use491"/></g><g transform="matrix(.1 0 0 -.1 486.715 186.916)" id="g505"><use xlink:href="#DejaVuSans-b1" id="use495"/><use xlink:href="#DejaVuSans-33" x="83.789" id="use497"/><use xlink:href="#DejaVuSans-2e" x="147.412" id="use499"/><use xlink:href="#DejaVuSans-34" x="179.199" id="use501"/><use xlink:href="#DejaVuSans-32" x="242.822" id="use503"/></g></g><g id="text_23" transform="matrix(1.5 0 0 1.5 -89.345 -163.398)"><g transform="matrix(.1 0 0 -.1 83.248 276.837)" id="g518"><use xlink:href="#DejaVuSans-32" id="use508"/><use xlink:href="#DejaVuSans-31" x="63.623" id="use510"/><use xlink:href="#DejaVuSans-2e" x="127.246" id="use512"/><use xlink:href="#DejaVuSans-37" x="159.033" id="use514"/><use xlink:href="#DejaVuSans-35" x="222.656" id="use516"/></g><g transform="matrix(.1 0 0 -.1 79.059 288.035)" id="g532"><use xlink:href="#DejaVuSans-b1" id="use520"/><use xlink:href="#DejaVuSans-33" x="83.789" id="use522"/><use xlink:href="#DejaVuSans-33" x="147.412" id="use524"/><use xlink:href="#DejaVuSans-2e" x="211.035" id="use526"/><use xlink:href="#DejaVuSans-32" x="242.822" id="use528"/><use xlink:href="#DejaVuSans-33" x="306.445" id="use530"/></g></g><g id="text_24" transform="matrix(1.5 0 0 1.5 -139.905 -163.398)"><g transform="matrix(.1 0 0 -.1 184.367 276.837)" id="g545"><use xlink:href="#DejaVuSans-38" id="use535"/><use xlink:href="#DejaVuSans-35" x="63.623" id="use537"/><use xlink:href="#DejaVuSans-2e" x="127.246" id="use539"/><use xlink:href="#DejaVuSans-33" x="159.033" id="use541"/><use xlink:href="#DejaVuSans-38" x="222.656" id="use543"/></g><g transform="matrix(.1 0 0 -.1 180.177 288.035)" id="g559"><use xlink:href="#DejaVuSans-b1" id="use547"/><use xlink:href="#DejaVuSans-31" x="83.789" id="use549"/><use xlink:href="#DejaVuSans-39" x="147.412" id="use551"/><use xlink:href="#DejaVuSans-2e" x="211.035" id="use553"/><use xlink:href="#DejaVuSans-32" x="242.822" id="use555"/><use xlink:href="#DejaVuSans-33" x="306.445" id="use557"/></g></g><g id="text_25" transform="matrix(1.5 0 0 1.5 -190.524 -163.398)"><g style="fill:#fff" transform="matrix(.1 0 0 -.1 282.305 276.837)" id="g574"><use xlink:href="#DejaVuSans-32" id="use562"/><use xlink:href="#DejaVuSans-31" x="63.623" id="use564"/><use xlink:href="#DejaVuSans-31" x="127.246" id="use566"/><use xlink:href="#DejaVuSans-2e" x="190.869" id="use568"/><use xlink:href="#DejaVuSans-38" x="222.656" id="use570"/><use xlink:href="#DejaVuSans-38" x="286.279" id="use572"/></g><g style="fill:#fff" transform="matrix(.1 0 0 -.1 281.296 288.035)" id="g588"><use xlink:href="#DejaVuSans-b1" id="use576"/><use xlink:href="#DejaVuSans-37" x="83.789" id="use578"/><use xlink:href="#DejaVuSans-30" x="147.412" id="use580"/><use xlink:href="#DejaVuSans-2e" x="211.035" id="use582"/><use xlink:href="#DejaVuSans-31" x="242.822" id="use584"/><use xlink:href="#DejaVuSans-34" x="306.445" id="use586"/></g></g><g id="text_26" transform="matrix(1.5 0 0 1.5 -241.01 -163.398)"><g transform="matrix(.1 0 0 -.1 386.605 276.837)" id="g601"><use xlink:href="#DejaVuSans-37" id="use591"/><use xlink:href="#DejaVuSans-30" x="63.623" id="use593"/><use xlink:href="#DejaVuSans-2e" x="127.246" id="use595"/><use xlink:href="#DejaVuSans-32" x="159.033" id="use597"/><use xlink:href="#DejaVuSans-35" x="222.656" id="use599"/></g><g transform="matrix(.1 0 0 -.1 382.415 288.035)" id="g615"><use xlink:href="#DejaVuSans-b1" id="use603"/><use xlink:href="#DejaVuSans-32" x="83.789" id="use605"/><use xlink:href="#DejaVuSans-35" x="147.412" id="use607"/><use xlink:href="#DejaVuSans-2e" x="211.035" id="use609"/><use xlink:href="#DejaVuSans-33" x="242.822" id="use611"/><use xlink:href="#DejaVuSans-37" x="306.445" id="use613"/></g></g><g id="text_27" transform="matrix(1.5 0 0 1.5 -291.612 -163.398)"><g transform="matrix(.1 0 0 -.1 490.905 276.837)" id="g626"><use xlink:href="#DejaVuSans-36" id="use618"/><use xlink:href="#DejaVuSans-2e" x="63.623" id="use620"/><use xlink:href="#DejaVuSans-37" x="95.41" id="use622"/><use xlink:href="#DejaVuSans-35" x="159.033" id="use624"/></g><g transform="matrix(.1 0 0 -.1 486.715 288.035)" id="g638"><use xlink:href="#DejaVuSans-b1" id="use628"/><use xlink:href="#DejaVuSans-39" x="83.789" id="use630"/><use xlink:href="#DejaVuSans-2e" x="147.412" id="use632"/><use xlink:href="#DejaVuSans-32" x="179.199" id="use634"/><use xlink:href="#DejaVuSans-38" x="242.822" id="use636"/></g></g><g id="text_28" transform="matrix(1.5 0 0 1.5 -89.37 -213.958)"><g transform="matrix(.1 0 0 -.1 86.43 377.956)" id="g649"><use xlink:href="#DejaVuSans-39" id="use641"/><use xlink:href="#DejaVuSans-2e" x="63.623" id="use643"/><use xlink:href="#DejaVuSans-30" x="95.41" id="use645"/><use xlink:href="#DejaVuSans-30" x="159.033" id="use647"/></g><g transform="matrix(.1 0 0 -.1 79.059 389.154)" id="g663"><use xlink:href="#DejaVuSans-b1" id="use651"/><use xlink:href="#DejaVuSans-32" x="83.789" id="use653"/><use xlink:href="#DejaVuSans-30" x="147.412" id="use655"/><use xlink:href="#DejaVuSans-2e" x="211.035" id="use657"/><use xlink:href="#DejaVuSans-30" x="242.822" id="use659"/><use xlink:href="#DejaVuSans-39" x="306.445" id="use661"/></g></g><g id="text_29" transform="matrix(1.5 0 0 1.5 -139.892 -213.958)"><g transform="matrix(.1 0 0 -.1 184.367 377.956)" id="g676"><use xlink:href="#DejaVuSans-32" id="use666"/><use xlink:href="#DejaVuSans-30" x="63.623" id="use668"/><use xlink:href="#DejaVuSans-2e" x="127.246" id="use670"/><use xlink:href="#DejaVuSans-30" x="159.033" id="use672"/><use xlink:href="#DejaVuSans-30" x="222.656" id="use674"/></g><g transform="matrix(.1 0 0 -.1 180.177 389.154)" id="g690"><use xlink:href="#DejaVuSans-b1" id="use678"/><use xlink:href="#DejaVuSans-32" x="83.789" id="use680"/><use xlink:href="#DejaVuSans-32" x="147.412" id="use682"/><use xlink:href="#DejaVuSans-2e" x="211.035" id="use684"/><use xlink:href="#DejaVuSans-36" x="242.822" id="use686"/><use xlink:href="#DejaVuSans-37" x="306.445" id="use688"/></g></g><g id="text_30" transform="matrix(1.5 0 0 1.5 -190.464 -213.958)"><g transform="matrix(.1 0 0 -.1 285.486 377.956)" id="g703"><use xlink:href="#DejaVuSans-37" id="use693"/><use xlink:href="#DejaVuSans-34" x="63.623" id="use695"/><use xlink:href="#DejaVuSans-2e" x="127.246" id="use697"/><use xlink:href="#DejaVuSans-32" x="159.033" id="use699"/><use xlink:href="#DejaVuSans-35" x="222.656" id="use701"/></g><g transform="matrix(.1 0 0 -.1 281.296 389.154)" id="g717"><use xlink:href="#DejaVuSans-b1" id="use705"/><use xlink:href="#DejaVuSans-31" x="83.789" id="use707"/><use xlink:href="#DejaVuSans-32" x="147.412" id="use709"/><use xlink:href="#DejaVuSans-2e" x="211.035" id="use711"/><use xlink:href="#DejaVuSans-30" x="242.822" id="use713"/><use xlink:href="#DejaVuSans-33" x="306.445" id="use715"/></g></g><g id="text_31" transform="matrix(1.5 0 0 1.5 -241.058 -213.958)"><g style="fill:#fff" transform="matrix(.1 0 0 -.1 383.423 377.956)" id="g732"><use xlink:href="#DejaVuSans-32" id="use720"/><use xlink:href="#DejaVuSans-32" x="63.623" id="use722"/><use xlink:href="#DejaVuSans-31" x="127.246" id="use724"/><use xlink:href="#DejaVuSans-2e" x="190.869" id="use726"/><use xlink:href="#DejaVuSans-33" x="222.656" id="use728"/><use xlink:href="#DejaVuSans-38" x="286.279" id="use730"/></g><g style="fill:#fff" transform="matrix(.1 0 0 -.1 382.415 389.154)" id="g746"><use xlink:href="#DejaVuSans-b1" id="use734"/><use xlink:href="#DejaVuSans-35" x="83.789" id="use736"/><use xlink:href="#DejaVuSans-36" x="147.412" id="use738"/><use xlink:href="#DejaVuSans-2e" x="211.035" id="use740"/><use xlink:href="#DejaVuSans-31" x="242.822" id="use742"/><use xlink:href="#DejaVuSans-30" x="306.445" id="use744"/></g></g><g id="text_32" transform="matrix(1.5 0 0 1.5 -291.57 -213.958)"><g transform="matrix(.1 0 0 -.1 487.724 377.956)" id="g759"><use xlink:href="#DejaVuSans-34" id="use749"/><use xlink:href="#DejaVuSans-37" x="63.623" id="use751"/><use xlink:href="#DejaVuSans-2e" x="127.246" id="use753"/><use xlink:href="#DejaVuSans-33" x="159.033" id="use755"/><use xlink:href="#DejaVuSans-38" x="222.656" id="use757"/></g><g transform="matrix(.1 0 0 -.1 483.534 389.154)" id="g773"><use xlink:href="#DejaVuSans-b1" id="use761"/><use xlink:href="#DejaVuSans-32" x="83.789" id="use763"/><use xlink:href="#DejaVuSans-30" x="147.412" id="use765"/><use xlink:href="#DejaVuSans-2e" x="211.035" id="use767"/><use xlink:href="#DejaVuSans-30" x="242.822" id="use769"/><use xlink:href="#DejaVuSans-37" x="306.445" id="use771"/></g></g><g id="text_33" transform="matrix(1.5 0 0 1.5 -89.296 -264.517)"><g transform="matrix(.1 0 0 -.1 86.43 479.075)" id="g784"><use xlink:href="#DejaVuSans-30" id="use776"/><use xlink:href="#DejaVuSans-2e" x="63.623" id="use778"/><use xlink:href="#DejaVuSans-35" x="95.41" id="use780"/><use xlink:href="#DejaVuSans-30" x="159.033" id="use782"/></g><g transform="matrix(.1 0 0 -.1 82.24 490.273)" id="g796"><use xlink:href="#DejaVuSans-b1" id="use786"/><use xlink:href="#DejaVuSans-31" x="83.789" id="use788"/><use xlink:href="#DejaVuSans-2e" x="147.412" id="use790"/><use xlink:href="#DejaVuSans-33" x="179.199" id="use792"/><use xlink:href="#DejaVuSans-32" x="242.822" id="use794"/></g></g><g id="text_34" transform="matrix(1.5 0 0 1.5 -139.905 -264.517)"><g transform="matrix(.1 0 0 -.1 187.548 479.075)" id="g807"><use xlink:href="#DejaVuSans-33" id="use799"/><use xlink:href="#DejaVuSans-2e" x="63.623" id="use801"/><use xlink:href="#DejaVuSans-37" x="95.41" id="use803"/><use xlink:href="#DejaVuSans-35" x="159.033" id="use805"/></g><g transform="matrix(.1 0 0 -.1 183.359 490.273)" id="g819"><use xlink:href="#DejaVuSans-b1" id="use809"/><use xlink:href="#DejaVuSans-37" x="83.789" id="use811"/><use xlink:href="#DejaVuSans-2e" x="147.412" id="use813"/><use xlink:href="#DejaVuSans-30" x="179.199" id="use815"/><use xlink:href="#DejaVuSans-33" x="242.822" id="use817"/></g></g><g id="text_35" transform="matrix(1.5 0 0 1.5 -190.524 -264.517)"><g transform="matrix(.1 0 0 -.1 288.667 479.075)" id="g830"><use xlink:href="#DejaVuSans-36" id="use822"/><use xlink:href="#DejaVuSans-2e" x="63.623" id="use824"/><use xlink:href="#DejaVuSans-38" x="95.41" id="use826"/><use xlink:href="#DejaVuSans-38" x="159.033" id="use828"/></g><g transform="matrix(.1 0 0 -.1 284.477 490.273)" id="g842"><use xlink:href="#DejaVuSans-b1" id="use832"/><use xlink:href="#DejaVuSans-39" x="83.789" id="use834"/><use xlink:href="#DejaVuSans-2e" x="147.412" id="use836"/><use xlink:href="#DejaVuSans-31" x="179.199" id="use838"/><use xlink:href="#DejaVuSans-34" x="242.822" id="use840"/></g></g><g id="text_36" transform="matrix(1.5 0 0 1.5 -241.048 -264.517)"><g transform="matrix(.1 0 0 -.1 386.605 479.075)" id="g855"><use xlink:href="#DejaVuSans-35" id="use845"/><use xlink:href="#DejaVuSans-33" x="63.623" id="use847"/><use xlink:href="#DejaVuSans-2e" x="127.246" id="use849"/><use xlink:href="#DejaVuSans-32" x="159.033" id="use851"/><use xlink:href="#DejaVuSans-35" x="222.656" id="use853"/></g><g transform="matrix(.1 0 0 -.1 382.415 490.273)" id="g869"><use xlink:href="#DejaVuSans-b1" id="use857"/><use xlink:href="#DejaVuSans-31" x="83.789" id="use859"/><use xlink:href="#DejaVuSans-37" x="147.412" id="use861"/><use xlink:href="#DejaVuSans-2e" x="211.035" id="use863"/><use xlink:href="#DejaVuSans-37" x="242.822" id="use865"/><use xlink:href="#DejaVuSans-39" x="306.445" id="use867"/></g></g><g id="text_37" transform="matrix(1.5 0 0 1.5 -291.626 -264.517)"><g style="fill:#fff" transform="matrix(.1 0 0 -.1 484.542 479.075)" id="g884"><use xlink:href="#DejaVuSans-33" id="use872"/><use xlink:href="#DejaVuSans-30" x="63.623" id="use874"/><use xlink:href="#DejaVuSans-34" x="127.246" id="use876"/><use xlink:href="#DejaVuSans-2e" x="190.869" id="use878"/><use xlink:href="#DejaVuSans-36" x="222.656" id="use880"/><use xlink:href="#DejaVuSans-32" x="286.279" id="use882"/></g><g style="fill:#fff" transform="matrix(.1 0 0 -.1 483.534 490.273)" id="g898"><use xlink:href="#DejaVuSans-b1" id="use886"/><use xlink:href="#DejaVuSans-32" x="83.789" id="use888"/><use xlink:href="#DejaVuSans-36" x="147.412" id="use890"/><use xlink:href="#DejaVuSans-2e" x="211.035" id="use892"/><use xlink:href="#DejaVuSans-39" x="242.822" id="use894"/><use xlink:href="#DejaVuSans-36" x="306.445" id="use896"/></g></g></g><defs id="defs960"><clipPath id="pb2995e710a"><path id="rect957" d="M47.003 26.88h505.594v505.594H47.003z"/></clipPath></defs></svg>