<?xml version="1.0" encoding="UTF-8" standalone="no"?>
<svg
   width="134.03389mm"
   height="134.03389mm"
   version="1.1"
   id="svg94"
   sodipodi:docname="normal4_level4.svg"
   inkscape:version="1.1.2 (0a00cf5339, 2022-02-04, custom)"
   xmlns:inkscape="http://www.inkscape.org/namespaces/inkscape"
   xmlns:sodipodi="http://sodipodi.sourceforge.net/DTD/sodipodi-0.dtd"
   xmlns="http://www.w3.org/2000/svg"
   xmlns:svg="http://www.w3.org/2000/svg">
  <sodipodi:namedview
     id="namedview96"
     pagecolor="#ffffff"
     bordercolor="#666666"
     borderopacity="1.0"
     inkscape:pageshadow="2"
     inkscape:pageopacity="0.0"
     inkscape:pagecheckerboard="0"
     inkscape:document-units="mm"
     showgrid="false"
     fit-margin-top="0"
     fit-margin-left="0"
     fit-margin-right="0"
     fit-margin-bottom="0"
     inkscape:zoom="0.95514583"
     inkscape:cx="244.46529"
     inkscape:cy="256.50533"
     inkscape:window-width="1920"
     inkscape:window-height="1048"
     inkscape:window-x="0"
     inkscape:window-y="0"
     inkscape:window-maximized="1"
     inkscape:current-layer="svg94" />
  <defs
     id="defs2" />
  <g
     id="g76"
     transform="translate(-126.26666,-121.53581)">
    <polygon
       points="126.5197,121.78884 435.76537,121.78884 435.76537,304.30404 126.5197,304.30404 "
       style="mix-blend-mode:normal;fill:#4cffd1;fill-opacity:0.8;stroke:#000000;stroke-width:0.506079;stroke-linecap:butt;stroke-linejoin:bevel;stroke-opacity:1;paint-order:markers fill stroke"
       id="polygon4" />
    <polygon
       points="126.5197,304.30404 126.5197,304.30404 435.76537,304.30404 "
       style="mix-blend-mode:normal;fill:#4cffd1;fill-opacity:0.8;stroke:#000000;stroke-width:0.506079;stroke-linecap:butt;stroke-linejoin:bevel;stroke-opacity:1;paint-order:markers fill stroke"
       id="polygon6" />
    <polygon
       points="435.76537,304.30404 435.76537,304.30404 435.76537,121.78884 "
       style="mix-blend-mode:normal;fill:#4cffd1;fill-opacity:0.8;stroke:#000000;stroke-width:0.506079;stroke-linecap:butt;stroke-linejoin:bevel;stroke-opacity:1;paint-order:markers fill stroke"
       id="polygon8" />
    <polygon
       points="126.5197,121.78884 126.5197,121.78884 126.5197,304.30404 "
       style="mix-blend-mode:normal;fill:#4cffd1;fill-opacity:0.8;stroke:#000000;stroke-width:0.506079;stroke-linecap:butt;stroke-linejoin:bevel;stroke-opacity:1;paint-order:markers fill stroke"
       id="polygon10" />
    <polygon
       points="435.76537,121.78884 435.76537,121.78884 126.5197,121.78884 "
       style="mix-blend-mode:normal;fill:#4cffd1;fill-opacity:0.8;stroke:#000000;stroke-width:0.506079;stroke-linecap:butt;stroke-linejoin:bevel;stroke-opacity:1;paint-order:markers fill stroke"
       id="polygon12" />
    <polygon
       points="126.5197,121.78884 126.5197,304.30404 435.76537,304.30404 435.76537,121.78884 "
       style="mix-blend-mode:normal;fill:#4cffd1;fill-opacity:0.8;stroke:#000000;stroke-width:0.506079;stroke-linecap:butt;stroke-linejoin:bevel;stroke-opacity:1;paint-order:markers fill stroke"
       id="polygon14" />
    <polygon
       points="126.5197,304.30404 435.76537,304.30404 458.5459,304.30404 458.5459,361.26715 458.5459,627.86756 126.5197,627.86756 "
       style="mix-blend-mode:normal;fill:#4cffd1;fill-opacity:0.8;stroke:#000000;stroke-width:0.506079;stroke-linecap:butt;stroke-linejoin:bevel;stroke-opacity:1;paint-order:markers fill stroke"
       id="polygon16" />
    <polygon
       points="126.5197,304.30404 126.5197,304.30404 126.5197,627.86756 "
       style="mix-blend-mode:normal;fill:#4cffd1;fill-opacity:0.8;stroke:#000000;stroke-width:0.506079;stroke-linecap:butt;stroke-linejoin:bevel;stroke-opacity:1;paint-order:markers fill stroke"
       id="polygon18" />
    <polygon
       points="435.76537,304.30404 435.76537,304.30404 458.5459,304.30404 "
       style="mix-blend-mode:normal;fill:#4cffd1;fill-opacity:0.8;stroke:#000000;stroke-width:0.506079;stroke-linecap:butt;stroke-linejoin:bevel;stroke-opacity:1;paint-order:markers fill stroke"
       id="polygon20" />
    <polygon
       points="458.5459,304.30404 435.76537,304.30404 126.5197,304.30404 126.5197,627.86756 458.5459,627.86756 458.5459,361.26715 "
       style="mix-blend-mode:normal;fill:#4cffd1;fill-opacity:0.8;stroke:#000000;stroke-width:0.506079;stroke-linecap:butt;stroke-linejoin:bevel;stroke-opacity:1;paint-order:markers fill stroke"
       id="polygon22" />
    <polygon
       points="126.5197,627.86756 126.5197,627.86756 458.5459,627.86756 "
       style="mix-blend-mode:normal;fill:#4cffd1;fill-opacity:0.8;stroke:#000000;stroke-width:0.506079;stroke-linecap:butt;stroke-linejoin:bevel;stroke-opacity:1;paint-order:markers fill stroke"
       id="polygon24" />
    <polygon
       points="458.5459,304.30404 458.5459,361.26715 458.5459,304.30404 "
       style="mix-blend-mode:normal;fill:#4cffd1;fill-opacity:0.8;stroke:#000000;stroke-width:0.506079;stroke-linecap:butt;stroke-linejoin:bevel;stroke-opacity:1;paint-order:markers fill stroke"
       id="polygon26" />
    <polygon
       points="458.5459,627.86756 458.5459,627.86756 458.5459,361.26715 "
       style="mix-blend-mode:normal;fill:#4cffd1;fill-opacity:0.8;stroke:#000000;stroke-width:0.506079;stroke-linecap:butt;stroke-linejoin:bevel;stroke-opacity:1;paint-order:markers fill stroke"
       id="polygon28" />
    <polygon
       points="435.76537,304.30404 435.76537,121.78884 523.77523,121.78884 523.77523,224.50191 523.77523,304.30404 458.5459,304.30404 "
       style="mix-blend-mode:normal;fill:#4cffd1;fill-opacity:0.8;stroke:#000000;stroke-width:0.506079;stroke-linecap:butt;stroke-linejoin:bevel;stroke-opacity:1;paint-order:markers fill stroke"
       id="polygon30" />
    <polygon
       points="523.77523,121.78884 523.77523,121.78884 435.76537,121.78884 "
       style="mix-blend-mode:normal;fill:#4cffd1;fill-opacity:0.8;stroke:#000000;stroke-width:0.506079;stroke-linecap:butt;stroke-linejoin:bevel;stroke-opacity:1;paint-order:markers fill stroke"
       id="polygon32" />
    <polygon
       points="523.77523,121.78884 435.76537,121.78884 435.76537,304.30404 458.5459,304.30404 523.77523,304.30404 523.77523,224.50191 "
       style="mix-blend-mode:normal;fill:#4cffd1;fill-opacity:0.8;stroke:#000000;stroke-width:0.506079;stroke-linecap:butt;stroke-linejoin:bevel;stroke-opacity:1;paint-order:markers fill stroke"
       id="polygon34" />
    <polygon
       points="523.77523,304.30404 523.77523,304.30404 458.5459,304.30404 "
       style="mix-blend-mode:normal;fill:#4cffd1;fill-opacity:0.8;stroke:#000000;stroke-width:0.506079;stroke-linecap:butt;stroke-linejoin:bevel;stroke-opacity:1;paint-order:markers fill stroke"
       id="polygon36" />
    <polygon
       points="523.77523,121.78884 523.77523,224.50191 523.77523,121.78884 "
       style="mix-blend-mode:normal;fill:#4cffd1;fill-opacity:0.8;stroke:#000000;stroke-width:0.506079;stroke-linecap:butt;stroke-linejoin:bevel;stroke-opacity:1;paint-order:markers fill stroke"
       id="polygon38" />
    <polygon
       points="523.77523,304.30404 523.77523,304.30404 523.77523,224.50191 "
       style="mix-blend-mode:normal;fill:#4cffd1;fill-opacity:0.8;stroke:#000000;stroke-width:0.506079;stroke-linecap:butt;stroke-linejoin:bevel;stroke-opacity:1;paint-order:markers fill stroke"
       id="polygon40" />
    <polygon
       points="458.5459,361.26715 458.5459,361.26715 632.5984,361.26715 "
       style="mix-blend-mode:normal;fill:#4cffd1;fill-opacity:0.8;stroke:#000000;stroke-width:0.506079;stroke-linecap:butt;stroke-linejoin:bevel;stroke-opacity:1;paint-order:markers fill stroke"
       id="polygon42" />
    <polygon
       points="523.77523,304.30404 458.5459,304.30404 458.5459,361.26715 632.5984,361.26715 632.5984,304.30404 "
       style="mix-blend-mode:normal;fill:#4cffd1;fill-opacity:0.8;stroke:#000000;stroke-width:0.506079;stroke-linecap:butt;stroke-linejoin:bevel;stroke-opacity:1;paint-order:markers fill stroke"
       id="polygon44" />
    <polygon
       points="458.5459,304.30404 523.77523,304.30404 632.5984,304.30404 632.5984,361.26715 458.5459,361.26715 "
       style="mix-blend-mode:normal;fill:#4cffd1;fill-opacity:0.8;stroke:#000000;stroke-width:0.506079;stroke-linecap:butt;stroke-linejoin:bevel;stroke-opacity:1;paint-order:markers fill stroke"
       id="polygon46" />
    <polygon
       points="632.5984,361.26715 632.5984,361.26715 632.5984,304.30404 "
       style="mix-blend-mode:normal;fill:#4cffd1;fill-opacity:0.8;stroke:#000000;stroke-width:0.506079;stroke-linecap:butt;stroke-linejoin:bevel;stroke-opacity:1;paint-order:markers fill stroke"
       id="polygon48" />
    <polygon
       points="523.77523,304.30404 523.77523,304.30404 632.5984,304.30404 "
       style="mix-blend-mode:normal;fill:#4cffd1;fill-opacity:0.8;stroke:#000000;stroke-width:0.506079;stroke-linecap:butt;stroke-linejoin:bevel;stroke-opacity:1;paint-order:markers fill stroke"
       id="polygon50" />
    <polygon
       points="458.5459,361.26715 632.5984,361.26715 632.5984,627.86756 458.5459,627.86756 "
       style="mix-blend-mode:normal;fill:#4cffd1;fill-opacity:0.8;stroke:#000000;stroke-width:0.506079;stroke-linecap:butt;stroke-linejoin:bevel;stroke-opacity:1;paint-order:markers fill stroke"
       id="polygon52" />
    <polygon
       points="458.5459,627.86756 458.5459,627.86756 632.5984,627.86756 "
       style="mix-blend-mode:normal;fill:#4cffd1;fill-opacity:0.8;stroke:#000000;stroke-width:0.506079;stroke-linecap:butt;stroke-linejoin:bevel;stroke-opacity:1;paint-order:markers fill stroke"
       id="polygon54" />
    <polygon
       points="458.5459,361.26715 458.5459,627.86756 632.5984,627.86756 632.5984,361.26715 "
       style="mix-blend-mode:normal;fill:#4cffd1;fill-opacity:0.8;stroke:#000000;stroke-width:0.506079;stroke-linecap:butt;stroke-linejoin:bevel;stroke-opacity:1;paint-order:markers fill stroke"
       id="polygon56" />
    <polygon
       points="632.5984,627.86756 632.5984,627.86756 632.5984,361.26715 "
       style="mix-blend-mode:normal;fill:#4cffd1;fill-opacity:0.8;stroke:#000000;stroke-width:0.506079;stroke-linecap:butt;stroke-linejoin:bevel;stroke-opacity:1;paint-order:markers fill stroke"
       id="polygon58" />
    <polygon
       points="523.77523,224.50191 523.77523,224.50191 632.5984,224.50191 "
       style="mix-blend-mode:normal;fill:#4cffd1;fill-opacity:0.8;stroke:#000000;stroke-width:0.506079;stroke-linecap:butt;stroke-linejoin:bevel;stroke-opacity:1;paint-order:markers fill stroke"
       id="polygon60" />
    <polygon
       points="523.77523,121.78884 523.77523,224.50191 632.5984,224.50191 632.5984,121.78884 "
       style="mix-blend-mode:normal;fill:#4cffd1;fill-opacity:0.8;stroke:#000000;stroke-width:0.506079;stroke-linecap:butt;stroke-linejoin:bevel;stroke-opacity:1;paint-order:markers fill stroke"
       id="polygon62" />
    <polygon
       points="632.5984,121.78884 632.5984,121.78884 523.77523,121.78884 "
       style="mix-blend-mode:normal;fill:#4cffd1;fill-opacity:0.8;stroke:#000000;stroke-width:0.506079;stroke-linecap:butt;stroke-linejoin:bevel;stroke-opacity:1;paint-order:markers fill stroke"
       id="polygon64" />
    <polygon
       points="523.77523,121.78884 632.5984,121.78884 632.5984,224.50191 523.77523,224.50191 "
       style="mix-blend-mode:normal;fill:#4cffd1;fill-opacity:0.8;stroke:#000000;stroke-width:0.506079;stroke-linecap:butt;stroke-linejoin:bevel;stroke-opacity:1;paint-order:markers fill stroke"
       id="polygon66" />
    <polygon
       points="632.5984,224.50191 632.5984,224.50191 632.5984,121.78884 "
       style="mix-blend-mode:normal;fill:#4cffd1;fill-opacity:0.8;stroke:#000000;stroke-width:0.506079;stroke-linecap:butt;stroke-linejoin:bevel;stroke-opacity:1;paint-order:markers fill stroke"
       id="polygon68" />
    <polygon
       points="523.77523,224.50191 632.5984,224.50191 632.5984,304.30404 523.77523,304.30404 "
       style="mix-blend-mode:normal;fill:#4cffd1;fill-opacity:0.8;stroke:#000000;stroke-width:0.506079;stroke-linecap:butt;stroke-linejoin:bevel;stroke-opacity:1;paint-order:markers fill stroke"
       id="polygon70" />
    <polygon
       points="523.77523,224.50191 523.77523,304.30404 632.5984,304.30404 632.5984,224.50191 "
       style="mix-blend-mode:normal;fill:#4cffd1;fill-opacity:0.8;stroke:#000000;stroke-width:0.506079;stroke-linecap:butt;stroke-linejoin:bevel;stroke-opacity:1;paint-order:markers fill stroke"
       id="polygon72" />
    <polygon
       points="632.5984,304.30404 632.5984,304.30404 632.5984,224.50191 "
       style="mix-blend-mode:normal;fill:#4cffd1;fill-opacity:0.8;stroke:#000000;stroke-width:0.506079;stroke-linecap:butt;stroke-linejoin:bevel;stroke-opacity:1;paint-order:markers fill stroke"
       id="polygon74" />
  </g>
  <g
     id="g92"
     transform="translate(-126.26666,-121.53581)">
    <polygon
       points="533.36474,239.62289 533.04301,239.20363 532.62375,238.88195 532.13556,238.67973 531.61161,238.61076 531.08767,238.67973 530.59943,238.88195 530.18022,239.20363 529.85849,239.62289 529.65627,240.11113 529.5873,240.63503 529.65627,241.15897 529.85849,241.64721 530.18022,242.06647 530.59943,242.38815 531.08767,242.59037 531.61161,242.65939 532.13556,242.59037 532.62375,242.38815 533.04301,242.06647 533.36474,241.64721 533.56696,241.15897 533.63593,240.63503 533.56696,240.11113 "
       style="mix-blend-mode:normal;fill:#000000;fill-opacity:1;stroke:#000000;stroke-width:0.506079;stroke-linecap:butt;stroke-linejoin:bevel;stroke-opacity:1;paint-order:markers fill stroke"
       id="polygon78" />
    <polygon
       points="597.64848,207.35662 597.32681,206.93736 596.90754,206.61568 596.41931,206.41346 595.89541,206.34444 595.37146,206.41346 594.88323,206.61568 594.46401,206.93736 594.14229,207.35662 593.94007,207.84485 593.87105,208.36875 593.94007,208.8927 594.14229,209.38093 594.46401,209.8002 594.88323,210.12187 595.37146,210.3241 595.89541,210.39306 596.41931,210.3241 596.90754,210.12187 597.32681,209.8002 597.64848,209.38093 597.85076,208.8927 597.91968,208.36875 597.85076,207.84485 "
       style="mix-blend-mode:normal;fill:#000000;fill-opacity:1;stroke:#000000;stroke-width:0.506079;stroke-linecap:butt;stroke-linejoin:bevel;stroke-opacity:1;paint-order:markers fill stroke"
       id="polygon80" />
    <polygon
       points="445.57182,256.45906 445.2501,256.03984 444.83088,255.71812 444.34265,255.51589 443.8187,255.44693 443.2948,255.51589 442.80657,255.71812 442.38731,256.03984 442.06558,256.45906 441.86336,256.94729 441.79439,257.47124 441.86336,257.99519 442.06558,258.48337 442.38731,258.90264 442.80657,259.22436 443.2948,259.42658 443.8187,259.49555 444.34265,259.42658 444.83088,259.22436 445.2501,258.90264 445.57182,258.48337 445.77405,257.99519 445.84302,257.47124 445.77405,256.94729 "
       style="mix-blend-mode:normal;fill:#000000;fill-opacity:1;stroke:#000000;stroke-width:0.506079;stroke-linecap:butt;stroke-linejoin:bevel;stroke-opacity:1;paint-order:markers fill stroke"
       id="polygon82" />
    <polygon
       points="468.2066,370.80296 467.88492,370.38372 467.46566,370.06202 466.97743,369.8598 466.45353,369.7908 465.92958,369.8598 465.44135,370.06202 465.02208,370.38372 464.70041,370.80296 464.49818,371.29119 464.42921,371.81512 464.49818,372.33907 464.70041,372.82727 465.02208,373.24654 465.44135,373.56824 465.92958,373.77046 466.45353,373.83943 466.97743,373.77046 467.46566,373.56824 467.88492,373.24654 468.2066,372.82727 468.40887,372.33907 468.47784,371.81512 468.40887,371.29119 "
       style="mix-blend-mode:normal;fill:#000000;fill-opacity:1;stroke:#000000;stroke-width:0.506079;stroke-linecap:butt;stroke-linejoin:bevel;stroke-opacity:1;paint-order:markers fill stroke"
       id="polygon84" />
    <polygon
       points="173.48902,153.88011 173.16732,153.46085 172.74808,153.13917 172.25985,152.9369 171.73592,152.86798 171.212,152.9369 170.72377,153.13917 170.30453,153.46085 169.98283,153.88011 169.78058,154.36835 169.71161,154.89225 169.78058,155.41619 169.98283,155.90443 170.30453,156.32364 170.72377,156.64537 171.212,156.84759 171.73592,156.91661 172.25985,156.84759 172.74808,156.64537 173.16732,156.32364 173.48902,155.90443 173.69127,155.41619 173.76024,154.89225 173.69127,154.36835 "
       style="mix-blend-mode:normal;fill:#000000;fill-opacity:1;stroke:#000000;stroke-width:0.506079;stroke-linecap:butt;stroke-linejoin:bevel;stroke-opacity:1;paint-order:markers fill stroke"
       id="polygon86" />
    <polygon
       points="566.27595,349.70704 565.95423,349.28778 565.53496,348.96605 565.04678,348.76383 564.52283,348.69486 563.99888,348.76383 563.51065,348.96605 563.09144,349.28778 562.76971,349.70704 562.56749,350.19527 562.49852,350.71917 562.56749,351.24312 562.76971,351.73135 563.09144,352.15059 563.51065,352.47229 563.99888,352.67452 564.52283,352.74351 565.04678,352.67452 565.53496,352.47229 565.95423,352.15059 566.27595,351.73135 566.47818,351.24312 566.54715,350.71917 566.47818,350.19527 "
       style="mix-blend-mode:normal;fill:#000000;fill-opacity:1;stroke:#000000;stroke-width:0.506079;stroke-linecap:butt;stroke-linejoin:bevel;stroke-opacity:1;paint-order:markers fill stroke"
       id="polygon88" />
    <polygon
       points="346.41452,545.21446 346.09282,544.79522 345.67355,544.47352 345.18534,544.2713 344.66139,544.20233 344.13747,544.2713 343.64924,544.47352 343.23,544.79522 342.9083,545.21446 342.70605,545.7027 342.63708,546.22664 342.70605,546.75057 342.9083,547.23878 343.23,547.65804 343.64924,547.97974 344.13747,548.18196 344.66139,548.25096 345.18534,548.18196 345.67355,547.97974 346.09282,547.65804 346.41452,547.23878 346.61674,546.75057 346.68571,546.22664 346.61674,545.7027 "
       style="mix-blend-mode:normal;fill:#000000;fill-opacity:1;stroke:#000000;stroke-width:0.506079;stroke-linecap:butt;stroke-linejoin:bevel;stroke-opacity:1;paint-order:markers fill stroke"
       id="polygon90" />
  </g>
</svg>
