<svg width="506.585" height="506.585" version="1.1" id="svg94" xmlns="http://www.w3.org/2000/svg"><g id="g76" transform="translate(-126.267 -121.536)"><path style="mix-blend-mode:normal;fill:#4cffd1;fill-opacity:.8;stroke:#000;stroke-width:.506079px;stroke-linecap:butt;stroke-linejoin:bevel;stroke-opacity:1;paint-order:markers fill stroke" id="polygon4" d="M126.52 121.789h309.245v182.515H126.52z"/><path style="mix-blend-mode:normal;fill:#4cffd1;fill-opacity:.8;stroke:#000;stroke-width:.506079px;stroke-linecap:butt;stroke-linejoin:bevel;stroke-opacity:1;paint-order:markers fill stroke" id="polygon6" d="M126.52 304.304h309.245z"/><path style="mix-blend-mode:normal;fill:#4cffd1;fill-opacity:.8;stroke:#000;stroke-width:.506079px;stroke-linecap:butt;stroke-linejoin:bevel;stroke-opacity:1;paint-order:markers fill stroke" id="polygon8" d="M435.765 304.304V121.789z"/><path style="mix-blend-mode:normal;fill:#4cffd1;fill-opacity:.8;stroke:#000;stroke-width:.506079px;stroke-linecap:butt;stroke-linejoin:bevel;stroke-opacity:1;paint-order:markers fill stroke" id="polygon10" d="M126.52 121.789v182.515z"/><path style="mix-blend-mode:normal;fill:#4cffd1;fill-opacity:.8;stroke:#000;stroke-width:.506079px;stroke-linecap:butt;stroke-linejoin:bevel;stroke-opacity:1;paint-order:markers fill stroke" id="polygon12" d="M435.765 121.789H126.52z"/><path style="mix-blend-mode:normal;fill:#4cffd1;fill-opacity:.8;stroke:#000;stroke-width:.506079px;stroke-linecap:butt;stroke-linejoin:bevel;stroke-opacity:1;paint-order:markers fill stroke" id="polygon14" d="M126.52 121.789v182.515h309.245V121.789z"/><path style="mix-blend-mode:normal;fill:#4cffd1;fill-opacity:.8;stroke:#000;stroke-width:.506079px;stroke-linecap:butt;stroke-linejoin:bevel;stroke-opacity:1;paint-order:markers fill stroke" id="polygon16" d="M126.52 304.304h332.025V627.867H126.52z"/><path style="mix-blend-mode:normal;fill:#4cffd1;fill-opacity:.8;stroke:#000;stroke-width:.506079px;stroke-linecap:butt;stroke-linejoin:bevel;stroke-opacity:1;paint-order:markers fill stroke" id="polygon18" d="M126.52 304.304v323.564z"/><path style="mix-blend-mode:normal;fill:#4cffd1;fill-opacity:.8;stroke:#000;stroke-width:.506079px;stroke-linecap:butt;stroke-linejoin:bevel;stroke-opacity:1;paint-order:markers fill stroke" id="polygon20" d="M435.765 304.304h22.78z"/><path style="mix-blend-mode:normal;fill:#4cffd1;fill-opacity:.8;stroke:#000;stroke-width:.506079px;stroke-linecap:butt;stroke-linejoin:bevel;stroke-opacity:1;paint-order:markers fill stroke" id="polygon22" d="M458.546 304.304H126.52v323.564h332.026v-266.6z"/><path style="mix-blend-mode:normal;fill:#4cffd1;fill-opacity:.8;stroke:#000;stroke-width:.506079px;stroke-linecap:butt;stroke-linejoin:bevel;stroke-opacity:1;paint-order:markers fill stroke" id="polygon24" d="M126.52 627.868h332.026z"/><path style="mix-blend-mode:normal;fill:#4cffd1;fill-opacity:.8;stroke:#000;stroke-width:.506079px;stroke-linecap:butt;stroke-linejoin:bevel;stroke-opacity:1;paint-order:markers fill stroke" id="polygon26" d="M458.546 304.304v56.963-56.963z"/><path style="mix-blend-mode:normal;fill:#4cffd1;fill-opacity:.8;stroke:#000;stroke-width:.506079px;stroke-linecap:butt;stroke-linejoin:bevel;stroke-opacity:1;paint-order:markers fill stroke" id="polygon28" d="M458.546 627.868v-266.6z"/><path style="mix-blend-mode:normal;fill:#4cffd1;fill-opacity:.8;stroke:#000;stroke-width:.506079px;stroke-linecap:butt;stroke-linejoin:bevel;stroke-opacity:1;paint-order:markers fill stroke" id="polygon30" d="M435.765 304.304V121.789h88.01v182.515h-65.23z"/><path style="mix-blend-mode:normal;fill:#4cffd1;fill-opacity:.8;stroke:#000;stroke-width:.506079px;stroke-linecap:butt;stroke-linejoin:bevel;stroke-opacity:1;paint-order:markers fill stroke" id="polygon32" d="M523.775 121.789h-88.01z"/><path style="mix-blend-mode:normal;fill:#4cffd1;fill-opacity:.8;stroke:#000;stroke-width:.506079px;stroke-linecap:butt;stroke-linejoin:bevel;stroke-opacity:1;paint-order:markers fill stroke" id="polygon34" d="M523.775 121.789h-88.01v182.515h88.01v-79.802z"/><path style="mix-blend-mode:normal;fill:#4cffd1;fill-opacity:.8;stroke:#000;stroke-width:.506079px;stroke-linecap:butt;stroke-linejoin:bevel;stroke-opacity:1;paint-order:markers fill stroke" id="polygon36" d="M523.775 304.304h-65.23z"/><path style="mix-blend-mode:normal;fill:#4cffd1;fill-opacity:.8;stroke:#000;stroke-width:.506079px;stroke-linecap:butt;stroke-linejoin:bevel;stroke-opacity:1;paint-order:markers fill stroke" id="polygon38" d="M523.775 121.789v102.713-102.713z"/><path style="mix-blend-mode:normal;fill:#4cffd1;fill-opacity:.8;stroke:#000;stroke-width:.506079px;stroke-linecap:butt;stroke-linejoin:bevel;stroke-opacity:1;paint-order:markers fill stroke" id="polygon40" d="M523.775 304.304v-79.802z"/><path style="mix-blend-mode:normal;fill:#4cffd1;fill-opacity:.8;stroke:#000;stroke-width:.506079px;stroke-linecap:butt;stroke-linejoin:bevel;stroke-opacity:1;paint-order:markers fill stroke" id="polygon42" d="M458.546 361.267h174.052z"/><path style="mix-blend-mode:normal;fill:#4cffd1;fill-opacity:.8;stroke:#000;stroke-width:.506079px;stroke-linecap:butt;stroke-linejoin:bevel;stroke-opacity:1;paint-order:markers fill stroke" id="polygon44" d="M523.775 304.304h-65.23v56.963h174.053v-56.963z"/><path style="mix-blend-mode:normal;fill:#4cffd1;fill-opacity:.8;stroke:#000;stroke-width:.506079px;stroke-linecap:butt;stroke-linejoin:bevel;stroke-opacity:1;paint-order:markers fill stroke" id="polygon46" d="M458.546 304.304H632.598v56.963H458.546z"/><path style="mix-blend-mode:normal;fill:#4cffd1;fill-opacity:.8;stroke:#000;stroke-width:.506079px;stroke-linecap:butt;stroke-linejoin:bevel;stroke-opacity:1;paint-order:markers fill stroke" id="polygon48" d="M632.598 361.267v-56.963z"/><path style="mix-blend-mode:normal;fill:#4cffd1;fill-opacity:.8;stroke:#000;stroke-width:.506079px;stroke-linecap:butt;stroke-linejoin:bevel;stroke-opacity:1;paint-order:markers fill stroke" id="polygon50" d="M523.775 304.304h108.823z"/><path style="mix-blend-mode:normal;fill:#4cffd1;fill-opacity:.8;stroke:#000;stroke-width:.506079px;stroke-linecap:butt;stroke-linejoin:bevel;stroke-opacity:1;paint-order:markers fill stroke" id="polygon52" d="M458.546 361.267h174.052v266.6H458.546z"/><path style="mix-blend-mode:normal;fill:#4cffd1;fill-opacity:.8;stroke:#000;stroke-width:.506079px;stroke-linecap:butt;stroke-linejoin:bevel;stroke-opacity:1;paint-order:markers fill stroke" id="polygon54" d="M458.546 627.868h174.052z"/><path style="mix-blend-mode:normal;fill:#4cffd1;fill-opacity:.8;stroke:#000;stroke-width:.506079px;stroke-linecap:butt;stroke-linejoin:bevel;stroke-opacity:1;paint-order:markers fill stroke" id="polygon56" d="M458.546 361.267v266.6h174.052v-266.6z"/><path style="mix-blend-mode:normal;fill:#4cffd1;fill-opacity:.8;stroke:#000;stroke-width:.506079px;stroke-linecap:butt;stroke-linejoin:bevel;stroke-opacity:1;paint-order:markers fill stroke" id="polygon58" d="M632.598 627.868v-266.6z"/><path style="mix-blend-mode:normal;fill:#4cffd1;fill-opacity:.8;stroke:#000;stroke-width:.506079px;stroke-linecap:butt;stroke-linejoin:bevel;stroke-opacity:1;paint-order:markers fill stroke" id="polygon60" d="M523.775 224.502h108.823z"/><path style="mix-blend-mode:normal;fill:#4cffd1;fill-opacity:.8;stroke:#000;stroke-width:.506079px;stroke-linecap:butt;stroke-linejoin:bevel;stroke-opacity:1;paint-order:markers fill stroke" id="polygon62" d="M523.775 121.789v102.713h108.823V121.789z"/><path style="mix-blend-mode:normal;fill:#4cffd1;fill-opacity:.8;stroke:#000;stroke-width:.506079px;stroke-linecap:butt;stroke-linejoin:bevel;stroke-opacity:1;paint-order:markers fill stroke" id="polygon64" d="M632.598 121.789H523.775z"/><path style="mix-blend-mode:normal;fill:#4cffd1;fill-opacity:.8;stroke:#000;stroke-width:.506079px;stroke-linecap:butt;stroke-linejoin:bevel;stroke-opacity:1;paint-order:markers fill stroke" id="polygon66" d="M523.775 121.789h108.823v102.713H523.775z"/><path style="mix-blend-mode:normal;fill:#4cffd1;fill-opacity:.8;stroke:#000;stroke-width:.506079px;stroke-linecap:butt;stroke-linejoin:bevel;stroke-opacity:1;paint-order:markers fill stroke" id="polygon68" d="M632.598 224.502V121.789z"/><path style="mix-blend-mode:normal;fill:#4cffd1;fill-opacity:.8;stroke:#000;stroke-width:.506079px;stroke-linecap:butt;stroke-linejoin:bevel;stroke-opacity:1;paint-order:markers fill stroke" id="polygon70" d="M523.775 224.502h108.823v79.802H523.775z"/><path style="mix-blend-mode:normal;fill:#4cffd1;fill-opacity:.8;stroke:#000;stroke-width:.506079px;stroke-linecap:butt;stroke-linejoin:bevel;stroke-opacity:1;paint-order:markers fill stroke" id="polygon72" d="M523.775 224.502v79.802h108.823v-79.802z"/><path style="mix-blend-mode:normal;fill:#4cffd1;fill-opacity:.8;stroke:#000;stroke-width:.506079px;stroke-linecap:butt;stroke-linejoin:bevel;stroke-opacity:1;paint-order:markers fill stroke" id="polygon74" d="M632.598 304.304v-79.802z"/></g><g id="g92" transform="translate(-126.267 -121.536)"><path style="mix-blend-mode:normal;fill:#000;fill-opacity:1;stroke:#000;stroke-width:.506079px;stroke-linecap:butt;stroke-linejoin:bevel;stroke-opacity:1;paint-order:markers fill stroke" id="polygon78" d="m533.365 239.623-.322-.42-.42-.321-.487-.202-.524-.07-.524.07-.489.202-.419.322-.322.419-.202.488-.069.524.07.524.201.488.322.42.42.321.488.202.524.07.524-.07.488-.202.419-.322.322-.419.202-.488.069-.524-.069-.524z"/><path style="mix-blend-mode:normal;fill:#000;fill-opacity:1;stroke:#000;stroke-width:.506079px;stroke-linecap:butt;stroke-linejoin:bevel;stroke-opacity:1;paint-order:markers fill stroke" id="polygon80" d="m597.648 207.357-.321-.42-.42-.321-.488-.203-.524-.069-.524.07-.488.202-.419.321-.322.42-.202.488-.069.524.07.524.201.488.322.42.42.32.487.203.524.07.524-.07.489-.202.419-.322.321-.42.203-.487.069-.524-.07-.524z"/><path style="mix-blend-mode:normal;fill:#000;fill-opacity:1;stroke:#000;stroke-width:.506079px;stroke-linecap:butt;stroke-linejoin:bevel;stroke-opacity:1;paint-order:markers fill stroke" id="polygon82" d="m445.572 256.46-.322-.42-.42-.322-.487-.202-.524-.07-.524.07-.488.202-.42.322-.321.42-.203.487-.069.524.07.524.202.488.321.42.42.321.488.203.524.069.524-.07.488-.202.42-.321.32-.42.203-.488.069-.524-.069-.524z"/><path style="mix-blend-mode:normal;fill:#000;fill-opacity:1;stroke:#000;stroke-width:.506079px;stroke-linecap:butt;stroke-linejoin:bevel;stroke-opacity:1;paint-order:markers fill stroke" id="polygon84" d="m468.207 370.803-.322-.42-.42-.321-.488-.202-.523-.07-.524.07-.489.202-.419.322-.322.419-.202.488-.069.524.07.524.201.488.322.42.42.321.488.202.524.07.523-.07.489-.202.419-.321.322-.42.202-.488.069-.524-.07-.524z"/><path style="mix-blend-mode:normal;fill:#000;fill-opacity:1;stroke:#000;stroke-width:.506079px;stroke-linecap:butt;stroke-linejoin:bevel;stroke-opacity:1;paint-order:markers fill stroke" id="polygon86" d="m173.489 153.88-.322-.42-.419-.32-.488-.203-.524-.069-.524.069-.488.202-.42.322-.321.42-.202.487-.07.524.07.524.202.488.322.42.419.321.488.203.524.069.524-.07.488-.202.42-.321.321-.42.202-.488.07-.524-.07-.524z"/><path style="mix-blend-mode:normal;fill:#000;fill-opacity:1;stroke:#000;stroke-width:.506079px;stroke-linecap:butt;stroke-linejoin:bevel;stroke-opacity:1;paint-order:markers fill stroke" id="polygon88" d="m566.276 349.707-.322-.42-.419-.32-.488-.203-.524-.07-.524.07-.488.202-.42.322-.321.419-.203.488-.068.524.068.524.203.488.321.42.42.321.488.203.524.069.524-.07.488-.202.42-.321.32-.42.203-.488.07-.524-.07-.524z"/><path style="mix-blend-mode:normal;fill:#000;fill-opacity:1;stroke:#000;stroke-width:.506079px;stroke-linecap:butt;stroke-linejoin:bevel;stroke-opacity:1;paint-order:markers fill stroke" id="polygon90" d="m346.415 545.214-.322-.419-.42-.321-.488-.203-.524-.069-.524.07-.488.202-.419.321-.322.42-.202.488-.069.524.07.524.201.488.322.419.42.322.487.202.524.069.524-.069.489-.202.419-.322.322-.42.202-.487.069-.524-.07-.524z"/></g></svg>